<svg xmlns="http://www.w3.org/2000/svg" viewBox="0 0 500 500"><g id="freepik--background-simple--inject-27"><g><path d="M478.80209,267.6558c17.746-113.5155-76.9512-227.9316-201.29019-242.1421-1.5474-.1769-3.097-.3425-4.6485-.4966-86.8795-8.6294-166.2938,57.7351-189.00049,108.3522C61.1561,183.9863,1.73124,232.1394,23.7572,325.9574c22.0257,93.8179,81.8637,143.8062,222.15729,158.6007,140.2938,14.7944,166.1786-25.33,203.42151-112.9836,12.90569-30.3742,23.63829-66.6405,29.46609-103.9187Z" style="fill:#3A1078;"></path><path d="M478.80209,267.6558c17.746-113.5155-76.9512-227.9316-201.29019-242.1421-1.5474-.1769-3.097-.3425-4.6485-.4966-86.8795-8.6294-166.2938,57.7351-189.00049,108.3522C61.1561,183.9863,1.73124,232.1394,23.7572,325.9574c22.0257,93.8179,81.8637,143.8062,222.15729,158.6007,140.2938,14.7944,166.1786-25.33,203.42151-112.9836,12.90569-30.3742,23.63829-66.6405,29.46609-103.9187Z" style="fill:#fff; opacity:.7;"></path></g></g><g id="freepik--Clock--inject-27"><g><circle cx="417.05261" cy="89.25333" r="55.16648" transform="translate(236.47203 475.63357) rotate(-77.0299)" style="fill:none; stroke:#263238; stroke-linecap:round; stroke-linejoin:round;"></circle><circle cx="417.05262" cy="89.25333" r="49.77668" transform="translate(245.62474 479.78056) rotate(-78.37984)" style="fill:none; stroke:#263238; stroke-linecap:round; stroke-linejoin:round;"></circle><line x1="418.52029" y1="92.5101" x2="431.35419" y2="120.9885" style="fill:none; stroke:#263238; stroke-linecap:round; stroke-linejoin:round;"></line><line x1="397.39119" y1="101.2426" x2="414.034" y2="91.3894" style="fill:none; stroke:#263238; stroke-linecap:round; stroke-linejoin:round;"></line><path d="M420.31669,89.2533c0,1.8027-1.4614,3.2641-3.2641,3.2641-1.80259,0-3.264-1.4614-3.264-3.2641,0-1.8026,1.46141-3.264,3.264-3.264,1.8027,0,3.2641,1.4614,3.2641,3.264Z" style="fill:none; stroke:#263238; stroke-linecap:round; stroke-linejoin:round;"></path></g></g><g id="freepik--Plant--inject-27"><g><g><rect x="77.1914" y="86.0084" width="3.5398" height="197.3427" style="fill:#263238;"></rect><rect x="88.1194" y="67.0888" width="3.5398" height="216.2623" style="fill:#263238;"></rect><rect x="99.0473" y="67.0888" width="3.5398" height="216.2623" style="fill:#263238;"></rect><g><path d="M77.0251,85.7573s-2.2768-5.0085-10.4726-5.4638c-8.196-.4555-14.5707,4.5532-14.5707,4.5532,0,0,7.2854-.4554,10.4727,.9106,3.1872,1.3662,7.2853,4.0981,7.2853,4.0981,0,0-2.7321,2.2765-4.5533,6.8299-1.8214,4.5533-4.5532,13.2046-4.5532,13.2046,0,0,8.6511-6.3746,10.9278-10.4725,2.2766-4.0981,5.464-6.3747,5.464-6.3747,0,0,1.3659,5.0086,.4552,8.6512-.9106,3.6427-1.3659,9.1066-1.3659,9.1066,0,0,9.1065-3.1873,7.2853-14.5705-1.8214-11.3833-6.3746-10.4727-6.3746-10.4727Z" style="fill:#3A1078;"></path><path d="M92.5063,117.6305s-2.2767-5.0086-10.4726-5.4641c-8.196-.4551-14.5706,4.5535-14.5706,4.5535,0,0,7.2852-.4553,10.4726,.9106,3.1873,1.366,7.2852,4.0979,7.2852,4.0979,0,0-2.732,2.2768-4.5533,6.8301-1.8213,4.5532-4.5532,13.2045-4.5532,13.2045,0,0,8.6513-6.3745,10.9279-10.4726,2.2767-4.0979,5.464-6.3746,5.464-6.3746,0,0,1.3659,5.0086,.4553,8.6513-.9107,3.6426-1.366,9.1066-1.366,9.1066,0,0,9.1066-3.1873,7.2853-14.5706-1.8213-11.3832-6.3746-10.4726-6.3746-10.4726Z" style="fill:#3A1078;"></path><path d="M73.8377,132.2011s-2.2766-5.0086-10.4726-5.464c-8.1959-.4554-14.5706,4.5533-14.5706,4.5533,0,0,7.2853-.4554,10.4727,.9107,3.1873,1.366,7.2853,4.098,7.2853,4.098,0,0-2.732,2.2767-4.5533,6.83-1.8214,4.5533-4.5532,13.2045-4.5532,13.2045,0,0,8.6511-6.3747,10.9278-10.4725,2.2766-4.0981,5.4639-6.3747,5.4639-6.3747,0,0,1.366,5.0086,.4554,8.6512-.9107,3.6427-1.366,9.1068-1.366,9.1068,0,0,9.1066-3.1874,7.2853-14.5707-1.8214-11.3833-6.3747-10.4726-6.3747-10.4726Z" style="fill:#3A1078;"></path><path d="M103.4016,188.6162s-4.5201-.8213-8.7327,4.5856c-4.2128,5.4072-3.8096,12.1645-3.8096,12.1645,0,0,3.1545-5.2156,5.6085-6.7525,2.4541-1.5369,6.2787-3.0486,6.2787-3.0486,0,0,.262,2.9579,2.5197,6.3744,2.2575,3.4165,6.8934,9.408,6.8934,9.408,0,0-.2569-8.9695-1.9855-12.4819-1.7283-3.5122-1.7738-6.7827-1.7738-6.7827,0,0,4.0868,1.4464,6.1528,3.8046,2.0662,2.3583,5.5985,5.2708,5.5985,5.2708,0,0,2.1465-7.7652-6.5306-11.9325-8.6775-4.1673-10.2194-.6097-10.2194-.6097Z" style="fill:#3A1078;"></path><path d="M104.8617,182.4918s-1.4444,4.3611,3.3213,9.2874c4.7657,4.9265,11.5134,5.4709,11.5134,5.4709,0,0-4.7239-3.8518-5.9033-6.4964-1.1791-2.6446-2.1419-6.6429-2.1419-6.6429,0,0,2.9655,.1535,6.6639-1.6048,3.6982-1.7584,10.2784-5.5123,10.2784-5.5123,0,0-8.9176-.998-12.6369,.2231-3.7192,1.2209-6.9638,.8092-6.9638,.8092,0,0,2.0027-3.8448,4.6264-5.5612,2.6237-1.7165,6.001-4.8075,6.001-4.8075,0,0-7.3894-3.2099-12.7277,4.8003-5.3382,8.0104-2.0308,10.0342-2.0308,10.0342Z" style="fill:#3A1078;"></path><path d="M59.3288,196.1516s-1.4445,4.3612,3.3211,9.2875c4.7657,4.9265,11.5133,5.471,11.5133,5.471,0,0-4.7238-3.852-5.903-6.4966s-2.1421-6.6428-2.1421-6.6428c0,0,2.9657,.1535,6.6639-1.6047,3.6982-1.7583,10.2784-5.5123,10.2784-5.5123,0,0-8.9176-.9981-12.6369,.2229-3.719,1.2211-6.9638,.8093-6.9638,.8093,0,0,2.0027-3.8447,4.6264-5.5611,2.6238-1.7164,6.001-4.8076,6.001-4.8076,0,0-7.3894-3.21-12.7277,4.8004-5.338,8.0104-2.0306,10.034-2.0306,10.034Z" style="fill:#3A1078;"></path><path d="M99.5429,213.2357s-1.4444,4.361,3.3212,9.2875c4.7657,4.9264,11.5134,5.4709,11.5134,5.4709,0,0-4.724-3.852-5.9031-6.4965-1.1794-2.6446-2.1422-6.6429-2.1422-6.6429,0,0,2.9657,.1536,6.6639-1.6047,3.6982-1.7584,10.2784-5.5123,10.2784-5.5123,0,0-8.9175-.9981-12.6368,.223-3.7191,1.221-6.9638,.8092-6.9638,.8092,0,0,2.0027-3.8447,4.6264-5.5611,2.6237-1.7165,6.0009-4.8075,6.0009-4.8075,0,0-7.3893-3.2102-12.7275,4.8003-5.3382,8.0104-2.0308,10.0341-2.0308,10.0341Z" style="fill:#3A1078;"></path><path d="M100.2469,136.7544s-2.2766-5.0086-10.4725-5.464c-8.1961-.4554-14.5707,4.5533-14.5707,4.5533,0,0,7.2852-.4552,10.4726,.9107,3.1873,1.3661,7.2853,4.098,7.2853,4.098,0,0-2.732,2.2767-4.5533,6.83-1.8212,4.5533-4.5533,13.2045-4.5533,13.2045,0,0,8.6513-6.3747,10.9279-10.4725,2.2767-4.098,5.464-6.3747,5.464-6.3747,0,0,1.3659,5.0086,.4553,8.6512-.9106,3.6427-1.366,9.1068-1.366,9.1068,0,0,9.1067-3.1874,7.2853-14.5707-1.8213-11.3833-6.3746-10.4726-6.3746-10.4726Z" style="fill:#3A1078;"></path><path d="M83.6588,85.2613s-3.5341,4.2165-.405,11.8052c3.1292,7.5888,10.3997,11.1751,10.3997,11.1751,0,0-3.557-6.3742-3.7016-9.8388-.1446-3.4647,.5495-8.3407,.5495-8.3407,0,0,3.2333,1.4807,8.1267,1.1569,4.8933-.3239,13.8759-1.5963,13.8759-1.5963,0,0-9.4858-5.0496-14.1651-5.333-4.6794-.2834-8.1093-2.1749-8.1093-2.1749,0,0,3.9275-3.3953,7.6061-4.1472,3.6787-.7518,8.8035-2.701,8.8035-2.701,0,0-6.8078-6.837-16.288-.2779-9.4803,6.5592-6.6924,10.2726-6.6924,10.2726Z" style="fill:#3A1078;"></path><path d="M95.9528,117.5897s-3.5342,4.2165-.405,11.8053c3.1291,7.5888,10.3996,11.175,10.3996,11.175,0,0-3.5571-6.3742-3.7016-9.8388-.1446-3.4647,.5496-8.3406,.5496-8.3406,0,0,3.2332,1.4807,8.1266,1.1569,4.8933-.324,13.8761-1.5963,13.8761-1.5963,0,0-9.4859-5.0496-14.1653-5.333-4.6794-.2835-8.1092-2.175-8.1092-2.175,0,0,3.9274-3.3951,7.606-4.1472,3.6787-.7518,8.8035-2.701,8.8035-2.701,0,0-6.8078-6.8369-16.288-.2778-9.4802,6.5591-6.6923,10.2725-6.6923,10.2725Z" style="fill:#3A1078;"></path><path d="M103.4909,133.5287s-3.5341,4.2165-.405,11.8053c3.1292,7.5887,10.3996,11.175,10.3996,11.175,0,0-3.557-6.3742-3.7017-9.8389-.1446-3.4646,.5495-8.3405,.5495-8.3405,0,0,3.2335,1.4807,8.1267,1.1568,4.8934-.324,13.8762-1.5962,13.8762-1.5962,0,0-9.4859-5.0497-14.1653-5.3331-4.6791-.2835-8.1092-2.175-8.1092-2.175,0,0,3.9274-3.3953,7.606-4.1471,3.6789-.7519,8.8035-2.701,8.8035-2.701,0,0-6.8079-6.837-16.288-.2778-9.4802,6.559-6.6923,10.2725-6.6923,10.2725Z" style="fill:#3A1078;"></path><path d="M85.6215,78.9247s4.9319-2.4386,5.1201-10.6451c.1883-8.2064-5.0251-14.4145-5.0251-14.4145,0,0,.6921,7.2666-.5693,10.4966-1.2615,3.2301-3.8586,7.415-3.8586,7.415,0,0-2.3644-2.6566-6.9746-4.3287-4.6101-1.6721-13.3459-4.1209-13.3459-4.1209,0,0,6.6529,8.439,10.8228,10.5812,4.1701,2.142,6.5492,5.2535,6.5492,5.2535,0,0-4.9615,1.5283-8.6319,.7366-3.6702-.7915-9.1461-1.0686-9.1461-1.0686,0,0,3.4819,8.9979,14.7999,6.8071,11.318-2.191,10.2595-6.7122,10.2595-6.7122Z" style="fill:#3A1078;"></path><path d="M54.0656,200.5454s-5.0828-2.1059-11.3828,3.1564c-6.2998,5.2623-7.5389,13.274-7.5389,13.274,0,0,5.0128-5.3061,8.2744-6.4836,3.2615-1.1778,8.1212-1.9789,8.1212-1.9789,0,0-.4423,3.5286,1.3352,8.0992,1.7774,4.5708,5.6869,12.7574,5.6869,12.7574,0,0,1.9701-10.564,.8363-15.1127s-.3589-8.3882-.3589-8.3882c0,0,4.4172,2.7275,6.2384,6.011,1.8214,3.2834,5.2186,7.5869,5.2186,7.5869,0,0,4.4787-8.5457-4.6231-15.6205-9.1017-7.0748-11.8073-3.301-11.8073-3.301Z" style="fill:#3A1078;"></path><path d="M103.2138,171.2222s4.9319-2.4384,5.1203-10.6449c.1881-8.2064-5.0254-14.4146-5.0254-14.4146,0,0,.6923,7.2666-.5692,10.4967-1.2615,3.2301-3.8586,7.4148-3.8586,7.4148,0,0-2.3644-2.6564-6.9746-4.3285-4.6101-1.6721-13.3458-4.121-13.3458-4.121,0,0,6.6529,8.4391,10.8228,10.5812s6.5492,5.2534,6.5492,5.2534c0,0-4.9615,1.5284-8.632,.7369-3.6703-.7916-9.1462-1.0689-9.1462-1.0689,0,0,3.4822,8.9981,14.8,6.8071,11.318-2.1909,10.2595-6.7122,10.2595-6.7122Z" style="fill:#3A1078;"></path><path d="M58.3525,197.0762s4.932-2.4384,5.1203-10.645c.1882-8.2065-5.0254-14.4145-5.0254-14.4145,0,0,.6925,7.2666-.5691,10.4965-1.2615,3.2302-3.8587,7.415-3.8587,7.415,0,0-2.3644-2.6565-6.9745-4.3286-4.6102-1.6721-13.3458-4.121-13.3458-4.121,0,0,6.6529,8.4391,10.8227,10.5813,4.1699,2.1419,6.5493,5.2535,6.5493,5.2535,0,0-4.9617,1.5283-8.6319,.7367-3.6704-.7916-9.1464-1.0688-9.1464-1.0688,0,0,3.4822,8.998,14.8,6.8071,11.318-2.191,10.2595-6.7122,10.2595-6.7122Z" style="fill:#3A1078;"></path><path d="M82.0953,233.4888s-1.4445,4.361,3.3213,9.2874c4.7656,4.9265,11.5132,5.4709,11.5132,5.4709,0,0-4.7239-3.8518-5.9031-6.4965-1.1792-2.6445-2.1421-6.6429-2.1421-6.6429,0,0,2.9656,.1536,6.6639-1.6047,3.6982-1.7583,10.2785-5.5122,10.2785-5.5122,0,0-8.9177-.9981-12.6369,.2229s-6.9639,.8093-6.9639,.8093c0,0,2.0028-3.8446,4.6265-5.5612,2.6237-1.7164,6.001-4.8075,6.001-4.8075,0,0-7.3895-3.2099-12.7277,4.8005-5.3382,8.0102-2.0307,10.034-2.0307,10.034Z" style="fill:#3A1078;"></path><path d="M76.8322,237.8825s-5.083-2.1059-11.3828,3.1564c-6.3,5.2624-7.5389,13.274-7.5389,13.274,0,0,5.0128-5.3061,8.2743-6.4836,3.2616-1.1778,8.1213-1.9789,8.1213-1.9789,0,0-.4423,3.5287,1.3351,8.0992,1.7775,4.5707,5.687,12.7575,5.687,12.7575,0,0,1.9701-10.564,.8362-15.1128-1.1338-4.5488-.3588-8.3881-.3588-8.3881,0,0,4.4172,2.7273,6.2384,6.0108,1.8212,3.2837,5.2185,7.5871,5.2185,7.5871,0,0,4.4788-8.5457-4.623-15.6205-9.1018-7.075-11.8073-3.3011-11.8073-3.3011Z" style="fill:#3A1078;"></path><path d="M81.1191,234.4133s4.9319-2.4384,5.1202-10.6449c.1882-8.2064-5.0253-14.4146-5.0253-14.4146,0,0,.6923,7.2666-.5693,10.4966-1.2614,3.2301-3.8586,7.4149-3.8586,7.4149,0,0-2.3643-2.6564-6.9745-4.3287-4.6102-1.6719-13.3459-4.1209-13.3459-4.1209,0,0,6.653,8.4391,10.8229,10.5812,4.17,2.142,6.5491,5.2535,6.5491,5.2535,0,0-4.9615,1.5284-8.6319,.7367-3.6703-.7916-9.1462-1.0687-9.1462-1.0687,0,0,3.4821,8.998,14.8,6.8071,11.3179-2.1909,10.2595-6.7122,10.2595-6.7122Z" style="fill:#3A1078;"></path><path d="M98.0318,192.5089s-1.4445,4.3612,3.3213,9.2877c4.7656,4.9264,11.5133,5.4708,11.5133,5.4708,0,0-4.7239-3.8519-5.9031-6.4964-1.1793-2.6448-2.1421-6.643-2.1421-6.643,0,0,2.9657,.1535,6.6638-1.6048,3.6983-1.7582,10.2785-5.5122,10.2785-5.5122,0,0-8.9176-.998-12.6369,.2231-3.7191,1.221-6.9638,.8092-6.9638,.8092,0,0,2.0027-3.8447,4.6264-5.5612,2.6236-1.7164,6.001-4.8076,6.001-4.8076,0,0-7.3894-3.21-12.7276,4.8005-5.3382,8.0104-2.0308,10.0339-2.0308,10.0339Z" style="fill:#3A1078;"></path><path d="M92.7687,196.9027s-5.0828-2.1057-11.3828,3.1566c-6.2998,5.2622-7.5389,13.274-7.5389,13.274,0,0,5.0127-5.3061,8.2744-6.4838,3.2616-1.1778,8.1212-1.9788,8.1212-1.9788,0,0-.4423,3.5285,1.3352,8.0991,1.7774,4.5707,5.687,12.7574,5.687,12.7574,0,0,1.97-10.564,.8362-15.1127-1.1339-4.5486-.359-8.3881-.359-8.3881,0,0,4.4174,2.7275,6.2386,6.011,1.8213,3.2834,5.2185,7.5871,5.2185,7.5871,0,0,4.4789-8.5459-4.623-15.6207-9.1018-7.0749-11.8074-3.3011-11.8074-3.3011Z" style="fill:#3A1078;"></path><path d="M97.0557,193.4335s4.9318-2.4384,5.1201-10.6449c.1883-8.2064-5.0252-14.4146-5.0252-14.4146,0,0,.6924,7.2666-.5693,10.4968-1.2614,3.2299-3.8586,7.4147-3.8586,7.4147,0,0-2.3643-2.6565-6.9745-4.3285-4.6102-1.6721-13.3458-4.1211-13.3458-4.1211,0,0,6.6529,8.4393,10.8227,10.5813,4.17,2.1419,6.5493,5.2535,6.5493,5.2535,0,0-4.9616,1.5283-8.6319,.7368-3.6705-.7917-9.1464-1.0689-9.1464-1.0689,0,0,3.4821,8.9981,14.8001,6.8071,11.3179-2.1909,10.2595-6.7122,10.2595-6.7122Z" style="fill:#3A1078;"></path><path d="M124.4339,209.2908s4.9319-2.4384,5.1201-10.6449c.1883-8.2063-5.0252-14.4145-5.0252-14.4145,0,0,.6924,7.2665-.5693,10.4967-1.2615,3.23-3.8584,7.4149-3.8584,7.4149,0,0-2.3645-2.6566-6.9748-4.3287-4.6101-1.6721-13.3458-4.1211-13.3458-4.1211,0,0,6.6529,8.4392,10.8228,10.5813,4.1701,2.142,6.5492,5.2536,6.5492,5.2536,0,0-4.9616,1.5283-8.6318,.7366-3.6704-.7915-9.1463-1.0687-9.1463-1.0687,0,0,3.482,8.998,14.8,6.8071,11.3181-2.1909,10.2595-6.7123,10.2595-6.7123Z" style="fill:#3A1078;"></path><path d="M73.8995,179.3044s-1.4447,4.3612,3.3211,9.2875c4.7657,4.9264,11.5132,5.4709,11.5132,5.4709,0,0-4.7239-3.8519-5.903-6.4965s-2.1421-6.6428-2.1421-6.6428c0,0,2.9656,.1535,6.6638-1.6048,3.6983-1.7584,10.2784-5.5123,10.2784-5.5123,0,0-8.9176-.998-12.6367,.223-3.7192,1.2211-6.9639,.8093-6.9639,.8093,0,0,2.0027-3.8448,4.6265-5.5611,2.6236-1.7166,6.0009-4.8076,6.0009-4.8076,0,0-7.3895-3.21-12.7276,4.8004-5.3382,8.0104-2.0306,10.034-2.0306,10.034Z" style="fill:#3A1078;"></path><path d="M68.636,183.6982s-5.0826-2.1059-11.3826,3.1565c-6.2999,5.2623-7.5389,13.2739-7.5389,13.2739,0,0,5.0128-5.3061,8.2744-6.4838,3.2616-1.1776,8.1213-1.9787,8.1213-1.9787,0,0-.4423,3.5287,1.3351,8.0992,1.7775,4.5706,5.6869,12.7574,5.6869,12.7574,0,0,1.9701-10.564,.8362-15.1127s-.3589-8.3881-.3589-8.3881c0,0,4.4174,2.7274,6.2386,6.0109,1.8212,3.2834,5.2185,7.587,5.2185,7.587,0,0,4.4788-8.5458-4.6231-15.6205-9.1019-7.075-11.8075-3.3011-11.8075-3.3011Z" style="fill:#3A1078;"></path><path d="M72.9231,180.229s4.9319-2.4386,5.1202-10.6449c.1883-8.2065-5.0253-14.4148-5.0253-14.4148,0,0,.6924,7.2668-.5692,10.4968-1.2615,3.2301-3.8585,7.4147-3.8585,7.4147,0,0-2.3645-2.6562-6.9747-4.3285-4.6102-1.6721-13.3458-4.1209-13.3458-4.1209,0,0,6.6529,8.4391,10.8229,10.5813,4.1698,2.1419,6.549,5.2535,6.549,5.2535,0,0-4.9615,1.5283-8.6318,.7366-3.6704-.7915-9.1463-1.0687-9.1463-1.0687,0,0,3.4823,8.9981,14.8,6.8069,11.318-2.1908,10.2595-6.712,10.2595-6.712Z" style="fill:#3A1078;"></path><g><path d="M102.2679,222.2375s-4.5199-.8213-8.7327,4.5856c-4.2127,5.4072-3.8095,12.1645-3.8095,12.1645,0,0,3.1544-5.2156,5.6084-6.7524,2.454-1.537,6.2787-3.0487,6.2787-3.0487,0,0,.2621,2.9579,2.5196,6.3744,2.2576,3.4165,6.8935,9.408,6.8935,9.408,0,0-.2569-8.9695-1.9854-12.4819-1.7285-3.5122-1.7739-6.7825-1.7739-6.7825,0,0,4.0869,1.4462,6.153,3.8044,2.066,2.3583,5.5985,5.2708,5.5985,5.2708,0,0,2.1464-7.7652-6.5309-11.9325s-10.2193-.6097-10.2193-.6097Z" style="fill:#3A1078;"></path><path d="M119.0181,234.7797s-1.4446,4.3611,3.321,9.2877c4.7659,4.9264,11.5133,5.4707,11.5133,5.4707,0,0-4.7239-3.8518-5.903-6.4964s-2.1421-6.6428-2.1421-6.6428c0,0,2.9656,.1536,6.6638-1.6049,3.6983-1.7583,10.2784-5.5122,10.2784-5.5122,0,0-8.9176-.998-12.6367,.223-3.7192,1.2211-6.9639,.8093-6.9639,.8093,0,0,2.0026-3.8447,4.6263-5.5611,2.6237-1.7166,6.001-4.8077,6.001-4.8077,0,0-7.3894-3.21-12.7274,4.8005-5.3383,8.0104-2.0307,10.0339-2.0307,10.0339Z" style="fill:#3A1078;"></path><path d="M113.7548,239.1735s-5.083-2.1057-11.3828,3.1566c-6.2999,5.2623-7.5389,13.274-7.5389,13.274,0,0,5.0128-5.3062,8.2743-6.4838,3.2617-1.1777,8.1212-1.9789,8.1212-1.9789,0,0-.4422,3.5287,1.3352,8.0993s5.6869,12.7575,5.6869,12.7575c0,0,1.9703-10.5642,.8363-15.1128-1.1338-4.5487-.3589-8.3882-.3589-8.3882,0,0,4.4173,2.7275,6.2387,6.011,1.8211,3.2834,5.2183,7.5871,5.2183,7.5871,0,0,4.4789-8.5459-4.6229-15.6207-9.1019-7.0748-11.8074-3.3011-11.8074-3.3011Z" style="fill:#3A1078;"></path><path d="M118.0418,235.7043s4.9318-2.4384,5.1201-10.6448c.1884-8.2065-5.0252-14.4147-5.0252-14.4147,0,0,.6923,7.2666-.5692,10.4967-1.2616,3.2301-3.8587,7.4148-3.8587,7.4148,0,0-2.3645-2.6564-6.9746-4.3285s-13.3458-4.121-13.3458-4.121c0,0,6.6529,8.4392,10.8229,10.5811,4.1699,2.1422,6.5492,5.2535,6.5492,5.2535,0,0-4.9616,1.5284-8.632,.7369-3.6704-.7916-9.1463-1.0689-9.1463-1.0689,0,0,3.4821,8.998,14.8001,6.8071,11.3179-2.1909,10.2595-6.7122,10.2595-6.7122Z" style="fill:#3A1078;"></path></g><g><path d="M24.439,208.4409s-4.52-.8214-8.7327,4.5855c-4.2127,5.407-3.8096,12.1645-3.8096,12.1645,0,0,3.1546-5.2155,5.6086-6.7524s6.2786-3.0488,6.2786-3.0488c0,0,.2621,2.958,2.5198,6.3745,2.2573,3.4166,6.8935,9.408,6.8935,9.408,0,0-.2571-8.9696-1.9856-12.4819-1.7283-3.5121-1.7737-6.7826-1.7737-6.7826,0,0,4.0866,1.4463,6.1528,3.8046,2.066,2.3583,5.5985,5.2708,5.5985,5.2708,0,0,2.1466-7.7652-6.5308-11.9325-8.6774-4.1673-10.2194-.6097-10.2194-.6097Z" style="fill:#3A1078;"></path><path d="M41.1892,220.9831s-1.4447,4.3611,3.3212,9.2875c4.7657,4.9266,11.5132,5.4709,11.5132,5.4709,0,0-4.724-3.8518-5.9032-6.4964-1.179-2.6447-2.1419-6.6431-2.1419-6.6431,0,0,2.9655,.1537,6.6638-1.6047,3.6983-1.7583,10.2785-5.5122,10.2785-5.5122,0,0-8.9178-.9979-12.6369,.2231-3.7192,1.221-6.9638,.8093-6.9638,.8093,0,0,2.0027-3.8448,4.6264-5.5614,2.6236-1.7164,6.001-4.8076,6.001-4.8076,0,0-7.3894-3.2098-12.7277,4.8006-5.3382,8.0104-2.0306,10.034-2.0306,10.034Z" style="fill:#3A1078;"></path><path d="M35.9258,225.3769s-5.0827-2.1059-11.3826,3.1565c-6.3,5.2623-7.5388,13.274-7.5388,13.274,0,0,5.0126-5.3061,8.2743-6.4839,3.2615-1.1775,8.121-1.9788,8.121-1.9788,0,0-.4422,3.5287,1.3354,8.0994,1.7775,4.5705,5.6869,12.7575,5.6869,12.7575,0,0,1.9701-10.5642,.8363-15.1129-1.134-4.5487-.3591-8.3882-.3591-8.3882,0,0,4.4174,2.7275,6.2386,6.011s5.2186,7.587,5.2186,7.587c0,0,4.4787-8.5457-4.6231-15.6206-9.1019-7.0749-11.8075-3.301-11.8075-3.301Z" style="fill:#3A1078;"></path><path d="M40.2129,221.9077s4.9319-2.4386,5.1203-10.645c.1882-8.2064-5.0254-14.4146-5.0254-14.4146,0,0,.6923,7.2666-.5692,10.4967-1.2615,3.2302-3.8588,7.4149-3.8588,7.4149,0,0-2.3642-2.6566-6.9744-4.3285-4.6103-1.6723-13.3458-4.1212-13.3458-4.1212,0,0,6.6529,8.4393,10.8228,10.5812,4.1699,2.1421,6.5491,5.2536,6.5491,5.2536,0,0-4.9615,1.5283-8.6318,.7368-3.6704-.7917-9.1463-1.0688-9.1463-1.0688,0,0,3.4822,8.9979,14.8,6.8071,11.3179-2.191,10.2595-6.7122,10.2595-6.7122Z" style="fill:#3A1078;"></path></g><g><path d="M52.6847,210.4013s-4.52-.8213-8.7326,4.5856c-4.2127,5.407-3.8096,12.1645-3.8096,12.1645,0,0,3.1546-5.2155,5.6085-6.7525,2.4541-1.5368,6.2787-3.0486,6.2787-3.0486,0,0,.2621,2.9579,2.5197,6.3745,2.2574,3.4165,6.8933,9.4079,6.8933,9.4079,0,0-.2568-8.9695-1.9853-12.4818-1.7283-3.5123-1.7739-6.7827-1.7739-6.7827,0,0,4.0868,1.4463,6.1528,3.8045,2.0661,2.3584,5.5985,5.2709,5.5985,5.2709,0,0,2.1466-7.7653-6.5307-11.9325-8.6774-4.1673-10.2194-.6098-10.2194-.6098Z" style="fill:#3A1078;"></path><path d="M69.4348,222.9436s-1.4445,4.3611,3.3211,9.2876c4.7658,4.9265,11.5134,5.4707,11.5134,5.4707,0,0-4.7238-3.8518-5.9031-6.4963-1.1792-2.6447-2.142-6.6431-2.142-6.6431,0,0,2.9655,.1536,6.6637-1.6047,3.6984-1.7583,10.2785-5.5122,10.2785-5.5122,0,0-8.9176-.9979-12.6367,.223-3.7193,1.2211-6.964,.8094-6.964,.8094,0,0,2.0028-3.8448,4.6265-5.5614,2.6236-1.7164,6.001-4.8075,6.001-4.8075,0,0-7.3895-3.2099-12.7276,4.8005-5.3383,8.0104-2.0308,10.034-2.0308,10.034Z" style="fill:#3A1078;"></path><path d="M64.1716,227.3373s-5.0829-2.1057-11.3826,3.1566c-6.3001,5.2623-7.539,13.274-7.539,13.274,0,0,5.0128-5.3061,8.2743-6.4838,3.2616-1.1776,8.1211-1.9789,8.1211-1.9789,0,0-.4421,3.5287,1.3353,8.0993,1.7776,4.5706,5.687,12.7576,5.687,12.7576,0,0,1.9702-10.5642,.8361-15.113-1.1338-4.5486-.3588-8.3881-.3588-8.3881,0,0,4.4173,2.7275,6.2385,6.011,1.8213,3.2835,5.2186,7.5871,5.2186,7.5871,0,0,4.4787-8.5459-4.623-15.6207-9.1019-7.0749-11.8075-3.3011-11.8075-3.3011Z" style="fill:#3A1078;"></path><path d="M68.4587,223.8681s4.9318-2.4384,5.12-10.6449c.1883-8.2064-5.025-14.4146-5.025-14.4146,0,0,.6921,7.2666-.5694,10.4967-1.2615,3.2302-3.8587,7.4148-3.8587,7.4148,0,0-2.3642-2.6564-6.9745-4.3285-4.6101-1.6721-13.3459-4.1211-13.3459-4.1211,0,0,6.653,8.4393,10.823,10.5812,4.1699,2.142,6.549,5.2536,6.549,5.2536,0,0-4.9615,1.5284-8.6319,.7368-3.6703-.7918-9.1461-1.0689-9.1461-1.0689,0,0,3.482,8.998,14.8,6.8071,11.3178-2.1909,10.2595-6.7122,10.2595-6.7122Z" style="fill:#3A1078;"></path></g><g><path d="M86.2049,244.5422s-4.52-.8214-8.7328,4.5856c-4.2127,5.4071-3.8095,12.1645-3.8095,12.1645,0,0,3.1545-5.2157,5.6085-6.7524,2.4541-1.537,6.2787-3.0488,6.2787-3.0488,0,0,.262,2.958,2.5196,6.3744,2.2575,3.4165,6.8936,9.4081,6.8936,9.4081,0,0-.257-8.9696-1.9855-12.482-1.7285-3.5121-1.7738-6.7825-1.7738-6.7825,0,0,4.0867,1.4462,6.1528,3.8045,2.066,2.3582,5.5985,5.2709,5.5985,5.2709,0,0,2.1464-7.7654-6.5308-11.9326-8.6773-4.1673-10.2193-.6097-10.2193-.6097Z" style="fill:#3A1078;"></path><path d="M102.955,257.0845s-1.4446,4.361,3.321,9.2875c4.7659,4.9264,11.5134,5.4708,11.5134,5.4708,0,0-4.7239-3.8518-5.9031-6.4964-1.179-2.6446-2.142-6.6428-2.142-6.6428,0,0,2.9656,.1535,6.6638-1.6049,3.6982-1.7583,10.2786-5.5123,10.2786-5.5123,0,0-8.9178-.998-12.6369,.2231-3.7192,1.2211-6.964,.8092-6.964,.8092,0,0,2.0028-3.8446,4.6264-5.561,2.6237-1.7166,6.0011-4.8076,6.0011-4.8076,0,0-7.3895-3.2101-12.7276,4.8004-5.3383,8.0104-2.0307,10.034-2.0307,10.034Z" style="fill:#3A1078;"></path><path d="M96.9788,255.0624s-5.0828-2.1059-11.3826,3.1565c-6.3,5.2622-7.539,13.2739-7.539,13.2739,0,0,5.0129-5.3061,8.2744-6.4836,3.2615-1.1778,8.1211-1.9788,8.1211-1.9788,0,0-.4421,3.5285,1.3354,8.0991,1.7775,4.5707,5.6868,12.7574,5.6868,12.7574,0,0,1.9702-10.564,.8362-15.1127-1.1338-4.5487-.3589-8.3881-.3589-8.3881,0,0,4.4173,2.7274,6.2385,6.0109s5.2186,7.587,5.2186,7.587c0,0,4.4788-8.5457-4.623-15.6205-9.1019-7.0749-11.8075-3.3011-11.8075-3.3011Z" style="fill:#3A1078;"></path><path d="M101.9787,258.0089s4.9319-2.4384,5.1202-10.6447c.1884-8.2066-5.0252-14.4148-5.0252-14.4148,0,0,.6923,7.2666-.5692,10.4968-1.2616,3.2301-3.8588,7.4147-3.8588,7.4147,0,0-2.3643-2.6563-6.9745-4.3285-4.6102-1.6721-13.3458-4.1209-13.3458-4.1209,0,0,6.6529,8.4392,10.8228,10.5811,4.1699,2.1421,6.5492,5.2535,6.5492,5.2535,0,0-4.9616,1.5283-8.6319,.7368-3.6704-.7915-9.1463-1.0689-9.1463-1.0689,0,0,3.5227,9.1984,14.8,6.8071,14.1709-3.0048,10.864-6.8845,10.2595-6.7122Z" style="fill:#3A1078;"></path></g><path d="M69.5156,254.9968s-1.016,3.0675,2.3362,6.5328c3.3522,3.4651,8.0984,3.848,8.0984,3.848,0,0-3.3228-2.7093-4.1523-4.5694-.8295-1.8603-1.5066-4.6726-1.5066-4.6726,0,0,2.0858,.108,4.6872-1.1287,2.6013-1.2367,7.2297-3.8772,7.2297-3.8772,0,0-6.2726-.702-8.8885,.1568-2.6161,.8588-4.8984,.5693-4.8984,.5693,0,0,1.4088-2.7044,3.2541-3.9117,1.8456-1.2074,4.2211-3.3816,4.2211-3.3816,0,0-5.1976-2.2578-8.9525,3.3765-3.7546,5.6344-1.4284,7.0578-1.4284,7.0578Z" style="fill:#3A1078;"></path><path d="M65.8136,258.0874s-3.5752-1.4813-8.0065,2.2202c-4.4312,3.7014-5.3028,9.3367-5.3028,9.3367,0,0,3.5261-3.7322,5.8202-4.5607,2.2941-.8282,5.7123-1.3918,5.7123-1.3918,0,0-.3111,2.4821,.9392,5.697,1.2502,3.215,4.0002,8.9734,4.0002,8.9734,0,0,1.3857-7.4307,.588-10.6302-.7974-3.1994-.2524-5.9001-.2524-5.9001,0,0,3.1071,1.9184,4.3882,4.2281,1.281,2.3095,3.6706,5.3365,3.6706,5.3365,0,0,3.1503-6.0108-3.2519-10.9873-6.402-4.9763-8.3051-2.3218-8.3051-2.3218Z" style="fill:#3A1078;"></path><path d="M68.829,255.6472s3.4691-1.7153,3.6014-7.4876c.1326-5.7722-3.5345-10.139-3.5345-10.139,0,0,.4869,5.1112-.4006,7.3832-.8872,2.2721-2.714,5.2156-2.714,5.2156,0,0-1.6631-1.8686-4.9057-3.0447-3.2429-1.1762-9.3874-2.8987-9.3874-2.8987,0,0,4.6795,5.936,7.6125,7.4427,2.9332,1.5067,4.6067,3.6953,4.6067,3.6953,0,0-3.4899,1.0749-6.0716,.5182-2.5816-.5568-6.4333-.7518-6.4333-.7518,0,0,2.4493,6.3291,10.4101,4.7879,7.9609-1.541,7.2164-4.7211,7.2164-4.7211Z" style="fill:#3A1078;"></path><path d="M99.5675,62.7959s-1.016,3.0674,2.3361,6.5328c3.352,3.4651,8.0984,3.8479,8.0984,3.8479,0,0-3.3228-2.7092-4.1522-4.5694-.8296-1.8602-1.5068-4.6725-1.5068-4.6725,0,0,2.086,.1079,4.6873-1.1288,2.6013-1.2367,7.2297-3.8772,7.2297-3.8772,0,0-6.2725-.7019-8.8886,.1569-2.616,.8588-4.8982,.5692-4.8982,.5692,0,0,1.4086-2.7043,3.2541-3.9117,1.8454-1.2074,4.221-3.3815,4.221-3.3815,0,0-5.1976-2.2579-8.9524,3.3765-3.7548,5.6344-1.4284,7.0578-1.4284,7.0578Z" style="fill:#3A1078;"></path><path d="M95.8654,65.8864s-3.5751-1.4813-8.0064,2.2202c-4.4313,3.7014-5.3028,9.3368-5.3028,9.3368,0,0,3.5259-3.7323,5.82-4.5607,2.2943-.8282,5.7124-1.3919,5.7124-1.3919,0,0-.311,2.4821,.9391,5.697,1.2503,3.2149,4.0002,8.9734,4.0002,8.9734,0,0,1.3858-7.4306,.5882-10.6302-.7975-3.1993-.2524-5.9-.2524-5.9,0,0,3.107,1.9183,4.388,4.228,1.281,2.3096,3.6707,5.3367,3.6707,5.3367,0,0,3.1501-6.011-3.2518-10.9874-6.4021-4.9763-8.3052-2.3219-8.3052-2.3219Z" style="fill:#3A1078;"></path><path d="M98.8809,63.4462s3.469-1.7153,3.6014-7.4875c.1325-5.7724-3.5346-10.1391-3.5346-10.1391,0,0,.4868,5.1112-.4005,7.3832-.8873,2.2721-2.7141,5.2157-2.7141,5.2157,0,0-1.6629-1.8686-4.9058-3.0448-3.2428-1.1762-9.3873-2.8987-9.3873-2.8987,0,0,4.6796,5.9361,7.6127,7.4427,2.9331,1.5067,4.6065,3.6953,4.6065,3.6953,0,0-3.4898,1.075-6.0715,.5183-2.5817-.5569-6.4333-.7519-6.4333-.7519,0,0,2.4492,6.3292,10.4101,4.7879,7.9609-1.541,7.2164-4.7211,7.2164-4.7211Z" style="fill:#3A1078;"></path><path d="M124.7752,144.337s-1.016,3.0674,2.3361,6.5327c3.3523,3.4651,8.0983,3.848,8.0983,3.848,0,0-3.3227-2.7093-4.1521-4.5694-.8294-1.8603-1.5067-4.6726-1.5067-4.6726,0,0,2.086,.108,4.6872-1.1287,2.6013-1.2369,7.2297-3.8772,7.2297-3.8772,0,0-6.2725-.7022-8.8885,.1568-2.6161,.8589-4.8982,.5691-4.8982,.5691,0,0,1.4086-2.7042,3.2542-3.9115,1.8452-1.2074,4.221-3.3817,4.221-3.3817,0,0-5.1976-2.2577-8.9526,3.3766-3.7547,5.6344-1.4284,7.0579-1.4284,7.0579Z" style="fill:#3A1078;"></path><path d="M121.0732,147.4275s-3.5752-1.4813-8.0065,2.2201c-4.4313,3.7015-5.3028,9.3368-5.3028,9.3368,0,0,3.526-3.7322,5.8201-4.5606,2.2942-.8283,5.7124-1.3919,5.7124-1.3919,0,0-.311,2.4821,.9391,5.697,1.2503,3.2148,4.0002,8.9734,4.0002,8.9734,0,0,1.3858-7.4307,.5882-10.6302-.7976-3.1994-.2525-5.9001-.2525-5.9001,0,0,3.1071,1.9184,4.3881,4.2281,1.281,2.3095,3.6706,5.3365,3.6706,5.3365,0,0,3.1504-6.0108-3.2517-10.9873-6.4021-4.9763-8.3052-2.3218-8.3052-2.3218Z" style="fill:#3A1078;"></path><path d="M124.0886,144.9873s3.4691-1.7153,3.6015-7.4876c.1323-5.7722-3.5347-10.139-3.5347-10.139,0,0,.4869,5.1112-.4004,7.3832-.8872,2.2721-2.7141,5.2156-2.7141,5.2156,0,0-1.6631-1.8686-4.9058-3.0447-3.2428-1.1762-9.3874-2.8987-9.3874-2.8987,0,0,4.6797,5.936,7.6127,7.4427s4.6066,3.6953,4.6066,3.6953c0,0-3.49,1.0749-6.0716,.5182-2.5816-.5568-6.4332-.7518-6.4332-.7518,0,0,2.4492,6.3291,10.4101,4.7879,7.9609-1.541,7.2163-4.7211,7.2163-4.7211Z" style="fill:#3A1078;"></path></g></g><g><rect x="77.1914" y="254.6983" width="3.5398" height="197.3427" style="fill:#263238;"></rect><rect x="88.1194" y="235.7787" width="3.5398" height="216.2623" style="fill:#263238;"></rect><rect x="99.0473" y="235.7787" width="3.5398" height="216.2623" style="fill:#263238;"></rect><g><path d="M77.0251,254.4473s-2.2768-5.0086-10.4726-5.4639c-8.196-.4555-14.5707,4.5533-14.5707,4.5533,0,0,7.2854-.4555,10.4727,.9106,3.1872,1.3661,7.2853,4.098,7.2853,4.098,0,0-2.7321,2.2765-4.5533,6.8299-1.8214,4.5533-4.5532,13.2046-4.5532,13.2046,0,0,8.6511-6.3746,10.9278-10.4725,2.2766-4.0981,5.464-6.3747,5.464-6.3747,0,0,1.3659,5.0086,.4552,8.6512-.9106,3.6427-1.3659,9.1066-1.3659,9.1066,0,0,9.1065-3.1873,7.2853-14.5705-1.8214-11.3832-6.3746-10.4726-6.3746-10.4726Z" style="fill:#3A1078;"></path><path d="M92.5063,286.3204s-2.2767-5.0086-10.4726-5.4641c-8.196-.4551-14.5706,4.5535-14.5706,4.5535,0,0,7.2852-.4553,10.4726,.9106,3.1873,1.366,7.2852,4.0979,7.2852,4.0979,0,0-2.732,2.2768-4.5533,6.8301-1.8213,4.5532-4.5532,13.2045-4.5532,13.2045,0,0,8.6513-6.3745,10.9279-10.4726,2.2767-4.0979,5.464-6.3746,5.464-6.3746,0,0,1.3659,5.0086,.4553,8.6513-.9107,3.6426-1.366,9.1066-1.366,9.1066,0,0,9.1066-3.1873,7.2853-14.5706-1.8213-11.3832-6.3746-10.4726-6.3746-10.4726Z" style="fill:#3A1078;"></path><path d="M73.8377,300.891s-2.2766-5.0086-10.4726-5.464c-8.1959-.4554-14.5706,4.5533-14.5706,4.5533,0,0,7.2853-.4554,10.4727,.9107,3.1873,1.366,7.2853,4.098,7.2853,4.098,0,0-2.732,2.2767-4.5533,6.83-1.8214,4.5533-4.5532,13.2045-4.5532,13.2045,0,0,8.6511-6.3747,10.9278-10.4725,2.2766-4.0981,5.4639-6.3747,5.4639-6.3747,0,0,1.366,5.0086,.4554,8.6512-.9107,3.6427-1.366,9.1068-1.366,9.1068,0,0,9.1066-3.1874,7.2853-14.5707-1.8214-11.3833-6.3747-10.4726-6.3747-10.4726Z" style="fill:#3A1078;"></path><path d="M103.4016,357.3061s-4.5201-.8213-8.7327,4.5856c-4.2128,5.4072-3.8096,12.1645-3.8096,12.1645,0,0,3.1545-5.2155,5.6085-6.7525,2.4541-1.5369,6.2787-3.0486,6.2787-3.0486,0,0,.262,2.9579,2.5197,6.3745,2.2575,3.4164,6.8934,9.4079,6.8934,9.4079,0,0-.2569-8.9695-1.9855-12.4819-1.7283-3.5122-1.7738-6.7827-1.7738-6.7827,0,0,4.0868,1.4464,6.1528,3.8046,2.0662,2.3584,5.5985,5.2708,5.5985,5.2708,0,0,2.1465-7.7652-6.5306-11.9325-8.6775-4.1672-10.2194-.6097-10.2194-.6097Z" style="fill:#3A1078;"></path><path d="M104.8617,351.1817s-1.4444,4.3611,3.3213,9.2874c4.7657,4.9265,11.5134,5.4709,11.5134,5.4709,0,0-4.7239-3.8518-5.9033-6.4964-1.1791-2.6446-2.1419-6.6429-2.1419-6.6429,0,0,2.9655,.1535,6.6639-1.6048,3.6982-1.7584,10.2784-5.5123,10.2784-5.5123,0,0-8.9176-.998-12.6369,.2231-3.7192,1.2209-6.9638,.8092-6.9638,.8092,0,0,2.0027-3.8448,4.6264-5.5612,2.6237-1.7165,6.001-4.8075,6.001-4.8075,0,0-7.3894-3.2099-12.7277,4.8003-5.3382,8.0104-2.0308,10.0342-2.0308,10.0342Z" style="fill:#3A1078;"></path><path d="M59.3288,364.8415s-1.4445,4.3612,3.3211,9.2875c4.7657,4.9265,11.5133,5.471,11.5133,5.471,0,0-4.7238-3.852-5.903-6.4966s-2.1421-6.6428-2.1421-6.6428c0,0,2.9657,.1535,6.6639-1.6047,3.6982-1.7583,10.2784-5.5123,10.2784-5.5123,0,0-8.9176-.9981-12.6369,.2229-3.719,1.2211-6.9638,.8093-6.9638,.8093,0,0,2.0027-3.8447,4.6264-5.5611,2.6238-1.7164,6.001-4.8076,6.001-4.8076,0,0-7.3894-3.21-12.7277,4.8004-5.338,8.0104-2.0306,10.034-2.0306,10.034Z" style="fill:#3A1078;"></path><path d="M99.5429,381.9256s-1.4444,4.361,3.3212,9.2875c4.7657,4.9264,11.5134,5.4709,11.5134,5.4709,0,0-4.724-3.852-5.9031-6.4965-1.1794-2.6446-2.1422-6.6429-2.1422-6.6429,0,0,2.9657,.1536,6.6639-1.6047,3.6982-1.7584,10.2784-5.5123,10.2784-5.5123,0,0-8.9175-.998-12.6368,.223-3.7191,1.221-6.9638,.8093-6.9638,.8093,0,0,2.0027-3.8448,4.6264-5.5612,2.6237-1.7165,6.0009-4.8075,6.0009-4.8075,0,0-7.3893-3.2102-12.7275,4.8003-5.3382,8.0104-2.0308,10.0341-2.0308,10.0341Z" style="fill:#3A1078;"></path><path d="M100.2469,305.4443s-2.2766-5.0086-10.4725-5.464c-8.1961-.4554-14.5707,4.5533-14.5707,4.5533,0,0,7.2852-.4552,10.4726,.9107,3.1873,1.3661,7.2853,4.098,7.2853,4.098,0,0-2.732,2.2767-4.5533,6.83-1.8212,4.5533-4.5533,13.2045-4.5533,13.2045,0,0,8.6513-6.3747,10.9279-10.4725,2.2767-4.098,5.464-6.3747,5.464-6.3747,0,0,1.3659,5.0086,.4553,8.6512-.9106,3.6427-1.366,9.1068-1.366,9.1068,0,0,9.1067-3.1874,7.2853-14.5707-1.8213-11.3833-6.3746-10.4726-6.3746-10.4726Z" style="fill:#3A1078;"></path><path d="M83.6588,253.9512s-3.5341,4.2165-.405,11.8052c3.1292,7.5888,10.3997,11.1751,10.3997,11.1751,0,0-3.557-6.3742-3.7016-9.8388-.1446-3.4647,.5495-8.3407,.5495-8.3407,0,0,3.2333,1.4807,8.1267,1.1569,4.8933-.3239,13.8759-1.5963,13.8759-1.5963,0,0-9.4858-5.0496-14.1651-5.333-4.6794-.2834-8.1093-2.1749-8.1093-2.1749,0,0,3.9275-3.3953,7.6061-4.1472,3.6787-.7518,8.8035-2.701,8.8035-2.701,0,0-6.8078-6.837-16.288-.2779-9.4803,6.5592-6.6924,10.2726-6.6924,10.2726Z" style="fill:#3A1078;"></path><path d="M95.9528,286.2797s-3.5342,4.2165-.405,11.8053c3.1291,7.5887,10.3996,11.1749,10.3996,11.1749,0,0-3.5571-6.3742-3.7016-9.8388-.1446-3.4647,.5496-8.3406,.5496-8.3406,0,0,3.2332,1.4807,8.1266,1.1569,4.8933-.324,13.8761-1.5963,13.8761-1.5963,0,0-9.4859-5.0496-14.1653-5.333-4.6794-.2835-8.1092-2.175-8.1092-2.175,0,0,3.9274-3.3951,7.606-4.1472,3.6787-.7518,8.8035-2.701,8.8035-2.701,0,0-6.8078-6.8369-16.288-.2778-9.4802,6.5591-6.6923,10.2726-6.6923,10.2726Z" style="fill:#3A1078;"></path><path d="M103.4909,302.2186s-3.5341,4.2165-.405,11.8053c3.1292,7.5887,10.3996,11.175,10.3996,11.175,0,0-3.557-6.3742-3.7017-9.8389-.1446-3.4646,.5495-8.3405,.5495-8.3405,0,0,3.2335,1.4807,8.1267,1.1568,4.8934-.3239,13.8762-1.5962,13.8762-1.5962,0,0-9.4859-5.0497-14.1653-5.3331-4.6791-.2835-8.1092-2.175-8.1092-2.175,0,0,3.9274-3.3953,7.606-4.1471,3.6789-.7519,8.8035-2.701,8.8035-2.701,0,0-6.8079-6.837-16.288-.2778-9.4802,6.559-6.6923,10.2725-6.6923,10.2725Z" style="fill:#3A1078;"></path><path d="M85.6215,247.6146s4.9319-2.4386,5.1201-10.6451c.1883-8.2064-5.0251-14.4145-5.0251-14.4145,0,0,.6921,7.2666-.5693,10.4966-1.2615,3.2301-3.8586,7.415-3.8586,7.415,0,0-2.3644-2.6566-6.9746-4.3287-4.6101-1.6721-13.3459-4.1209-13.3459-4.1209,0,0,6.6529,8.439,10.8228,10.5812,4.1701,2.142,6.5492,5.2535,6.5492,5.2535,0,0-4.9615,1.5283-8.6319,.7366-3.6702-.7915-9.1461-1.0686-9.1461-1.0686,0,0,3.4819,8.9979,14.7999,6.8071,11.318-2.191,10.2595-6.7122,10.2595-6.7122Z" style="fill:#3A1078;"></path><path d="M54.0656,369.2353s-5.0828-2.1059-11.3828,3.1565c-6.2998,5.2622-7.5389,13.2739-7.5389,13.2739,0,0,5.0128-5.3061,8.2744-6.4836,3.2615-1.1778,8.1212-1.9788,8.1212-1.9788,0,0-.4423,3.5285,1.3352,8.0991,1.7774,4.5708,5.6869,12.7574,5.6869,12.7574,0,0,1.9701-10.564,.8363-15.1127s-.3589-8.3881-.3589-8.3881c0,0,4.4172,2.7274,6.2384,6.0109,1.8214,3.2834,5.2186,7.587,5.2186,7.587,0,0,4.4787-8.5458-4.6231-15.6206-9.1017-7.0748-11.8073-3.301-11.8073-3.301Z" style="fill:#3A1078;"></path><path d="M103.2138,339.9121s4.9319-2.4384,5.1203-10.6448c.1881-8.2065-5.0254-14.4147-5.0254-14.4147,0,0,.6923,7.2666-.5692,10.4967-1.2615,3.2301-3.8586,7.4148-3.8586,7.4148,0,0-2.3644-2.6564-6.9746-4.3285-4.6101-1.6721-13.3458-4.121-13.3458-4.121,0,0,6.6529,8.4392,10.8228,10.5812,4.1699,2.1421,6.5492,5.2534,6.5492,5.2534,0,0-4.9615,1.5284-8.632,.7369-3.6703-.7916-9.1462-1.0689-9.1462-1.0689,0,0,3.4822,8.9981,14.8,6.8071,11.318-2.1909,10.2595-6.7122,10.2595-6.7122Z" style="fill:#3A1078;"></path><path d="M58.3525,365.7661s4.932-2.4384,5.1203-10.645c.1882-8.2065-5.0254-14.4145-5.0254-14.4145,0,0,.6925,7.2666-.5691,10.4965-1.2615,3.2302-3.8587,7.415-3.8587,7.415,0,0-2.3644-2.6565-6.9745-4.3286-4.6102-1.672-13.3458-4.121-13.3458-4.121,0,0,6.6529,8.4391,10.8227,10.5813,4.1699,2.1419,6.5493,5.2535,6.5493,5.2535,0,0-4.9617,1.5283-8.6319,.7367-3.6704-.7916-9.1464-1.0688-9.1464-1.0688,0,0,3.4822,8.998,14.8,6.8071,11.318-2.1909,10.2595-6.7122,10.2595-6.7122Z" style="fill:#3A1078;"></path><path d="M82.0953,402.1787s-1.4445,4.361,3.3213,9.2874c4.7656,4.9265,11.5132,5.4709,11.5132,5.4709,0,0-4.7239-3.8518-5.9031-6.4964s-2.1421-6.643-2.1421-6.643c0,0,2.9656,.1536,6.6639-1.6047,3.6982-1.7583,10.2785-5.5122,10.2785-5.5122,0,0-8.9177-.9981-12.6369,.2229s-6.9639,.8093-6.9639,.8093c0,0,2.0028-3.8446,4.6265-5.5612,2.6237-1.7164,6.001-4.8075,6.001-4.8075,0,0-7.3895-3.2099-12.7277,4.8005-5.3382,8.0102-2.0307,10.034-2.0307,10.034Z" style="fill:#3A1078;"></path><path d="M76.8322,406.5724s-5.083-2.1059-11.3828,3.1564c-6.3,5.2624-7.5389,13.274-7.5389,13.274,0,0,5.0128-5.3061,8.2743-6.4836,3.2616-1.1778,8.1213-1.9789,8.1213-1.9789,0,0-.4423,3.5287,1.3351,8.0992,1.7775,4.5707,5.687,12.7575,5.687,12.7575,0,0,1.9701-10.564,.8362-15.1128-1.1338-4.5488-.3588-8.3881-.3588-8.3881,0,0,4.4172,2.7273,6.2384,6.0108,1.8212,3.2837,5.2185,7.5871,5.2185,7.5871,0,0,4.4788-8.5457-4.623-15.6205-9.1018-7.075-11.8073-3.3011-11.8073-3.3011Z" style="fill:#3A1078;"></path><path d="M81.1191,403.1032s4.9319-2.4384,5.1202-10.6449c.1882-8.2064-5.0253-14.4146-5.0253-14.4146,0,0,.6923,7.2666-.5693,10.4966-1.2614,3.2301-3.8586,7.4149-3.8586,7.4149,0,0-2.3643-2.6564-6.9745-4.3287-4.6102-1.6719-13.3459-4.1209-13.3459-4.1209,0,0,6.653,8.4391,10.8229,10.5812,4.17,2.142,6.5491,5.2535,6.5491,5.2535,0,0-4.9615,1.5284-8.6319,.7367-3.6703-.7916-9.1462-1.0687-9.1462-1.0687,0,0,3.4821,8.998,14.8,6.8071,11.3179-2.1909,10.2595-6.7122,10.2595-6.7122Z" style="fill:#3A1078;"></path><path d="M98.0318,361.1988s-1.4445,4.3612,3.3213,9.2877c4.7656,4.9264,11.5133,5.4708,11.5133,5.4708,0,0-4.7239-3.8519-5.9031-6.4964-1.1793-2.6448-2.1421-6.643-2.1421-6.643,0,0,2.9657,.1535,6.6638-1.6048,3.6983-1.7582,10.2785-5.5122,10.2785-5.5122,0,0-8.9176-.998-12.6369,.2231-3.7191,1.221-6.9638,.8092-6.9638,.8092,0,0,2.0027-3.8447,4.6264-5.5612,2.6236-1.7164,6.001-4.8076,6.001-4.8076,0,0-7.3894-3.21-12.7276,4.8005-5.3382,8.0104-2.0308,10.0339-2.0308,10.0339Z" style="fill:#3A1078;"></path><path d="M92.7687,365.5926s-5.0828-2.1057-11.3828,3.1566c-6.2998,5.2622-7.5389,13.274-7.5389,13.274,0,0,5.0127-5.3061,8.2744-6.4838,3.2616-1.1778,8.1212-1.9788,8.1212-1.9788,0,0-.4423,3.5286,1.3352,8.0991,1.7774,4.5707,5.687,12.7574,5.687,12.7574,0,0,1.97-10.564,.8362-15.1127-1.1339-4.5486-.359-8.3881-.359-8.3881,0,0,4.4174,2.7275,6.2386,6.011,1.8213,3.2834,5.2185,7.5871,5.2185,7.5871,0,0,4.4789-8.5459-4.623-15.6207-9.1018-7.0749-11.8074-3.3011-11.8074-3.3011Z" style="fill:#3A1078;"></path><path d="M97.0557,362.1234s4.9318-2.4384,5.1201-10.6449c.1883-8.2064-5.0252-14.4146-5.0252-14.4146,0,0,.6924,7.2666-.5693,10.4968-1.2614,3.2299-3.8586,7.4147-3.8586,7.4147,0,0-2.3643-2.6564-6.9745-4.3285s-13.3458-4.1211-13.3458-4.1211c0,0,6.6529,8.4393,10.8227,10.5813,4.17,2.1419,6.5493,5.2535,6.5493,5.2535,0,0-4.9616,1.5283-8.6319,.7368-3.6705-.7917-9.1464-1.0689-9.1464-1.0689,0,0,3.4821,8.9981,14.8001,6.8071,11.3179-2.1909,10.2595-6.7122,10.2595-6.7122Z" style="fill:#3A1078;"></path><path d="M124.4339,377.9808s4.9319-2.4385,5.1201-10.645c.1883-8.2063-5.0252-14.4145-5.0252-14.4145,0,0,.6924,7.2665-.5693,10.4967-1.2615,3.23-3.8584,7.4149-3.8584,7.4149,0,0-2.3645-2.6566-6.9748-4.3287-4.6101-1.6721-13.3458-4.1211-13.3458-4.1211,0,0,6.6529,8.4392,10.8228,10.5813,4.1701,2.142,6.5492,5.2536,6.5492,5.2536,0,0-4.9616,1.5283-8.6318,.7366-3.6704-.7915-9.1463-1.0687-9.1463-1.0687,0,0,3.482,8.998,14.8,6.8071,11.3181-2.1909,10.2595-6.7122,10.2595-6.7122Z" style="fill:#3A1078;"></path><path d="M73.8995,347.9943s-1.4447,4.3612,3.3211,9.2875c4.7657,4.9264,11.5132,5.4709,11.5132,5.4709,0,0-4.7239-3.8519-5.903-6.4965-1.1791-2.6445-2.1421-6.6428-2.1421-6.6428,0,0,2.9656,.1535,6.6638-1.6048,3.6983-1.7584,10.2784-5.5123,10.2784-5.5123,0,0-8.9176-.998-12.6367,.223-3.7192,1.2211-6.9639,.8093-6.9639,.8093,0,0,2.0027-3.8448,4.6265-5.5611,2.6236-1.7166,6.0009-4.8076,6.0009-4.8076,0,0-7.3895-3.21-12.7276,4.8004-5.3382,8.0104-2.0306,10.034-2.0306,10.034Z" style="fill:#3A1078;"></path><path d="M68.636,352.3881s-5.0826-2.1059-11.3826,3.1565c-6.2999,5.2623-7.5389,13.2739-7.5389,13.2739,0,0,5.0128-5.3061,8.2744-6.4838,3.2616-1.1776,8.1213-1.9787,8.1213-1.9787,0,0-.4423,3.5287,1.3351,8.0992,1.7775,4.5706,5.6869,12.7574,5.6869,12.7574,0,0,1.9701-10.564,.8362-15.1127s-.3589-8.3881-.3589-8.3881c0,0,4.4174,2.7274,6.2386,6.0109s5.2185,7.587,5.2185,7.587c0,0,4.4788-8.5458-4.6231-15.6205-9.1019-7.075-11.8075-3.3011-11.8075-3.3011Z" style="fill:#3A1078;"></path><path d="M72.9231,348.9189s4.9319-2.4386,5.1202-10.6449c.1883-8.2065-5.0253-14.4148-5.0253-14.4148,0,0,.6924,7.2668-.5692,10.4968-1.2615,3.2302-3.8585,7.4147-3.8585,7.4147,0,0-2.3645-2.6562-6.9747-4.3285-4.6102-1.6721-13.3458-4.1209-13.3458-4.1209,0,0,6.6529,8.4391,10.8229,10.5813,4.1698,2.1419,6.549,5.2535,6.549,5.2535,0,0-4.9615,1.5283-8.6318,.7366-3.6704-.7915-9.1463-1.0687-9.1463-1.0687,0,0,3.4823,8.9981,14.8,6.8069,11.318-2.1908,10.2595-6.712,10.2595-6.712Z" style="fill:#3A1078;"></path><g><path d="M102.2679,390.9274s-4.5199-.8213-8.7327,4.5856c-4.2127,5.4072-3.8095,12.1645-3.8095,12.1645,0,0,3.1544-5.2155,5.6084-6.7524,2.454-1.537,6.2787-3.0487,6.2787-3.0487,0,0,.2621,2.9579,2.5196,6.3745,2.2576,3.4164,6.8935,9.4079,6.8935,9.4079,0,0-.2569-8.9695-1.9854-12.4819-1.7285-3.5122-1.7739-6.7825-1.7739-6.7825,0,0,4.0869,1.4462,6.153,3.8044,2.066,2.3584,5.5985,5.2708,5.5985,5.2708,0,0,2.1464-7.7652-6.5309-11.9325-8.6773-4.1672-10.2193-.6097-10.2193-.6097Z" style="fill:#3A1078;"></path><path d="M119.0181,403.4696s-1.4446,4.3611,3.321,9.2877c4.7659,4.9264,11.5133,5.4707,11.5133,5.4707,0,0-4.7239-3.8518-5.903-6.4964s-2.1421-6.6428-2.1421-6.6428c0,0,2.9656,.1536,6.6638-1.6049,3.6983-1.7583,10.2784-5.5121,10.2784-5.5121,0,0-8.9176-.998-12.6367,.2229-3.7192,1.2211-6.9639,.8094-6.9639,.8094,0,0,2.0026-3.8448,4.6263-5.5612,2.6237-1.7166,6.001-4.8077,6.001-4.8077,0,0-7.3894-3.21-12.7274,4.8005-5.3383,8.0104-2.0307,10.0339-2.0307,10.0339Z" style="fill:#3A1078;"></path><path d="M113.7548,407.8634s-5.083-2.1057-11.3828,3.1566c-6.2999,5.2623-7.5389,13.274-7.5389,13.274,0,0,5.0128-5.3062,8.2743-6.4838,3.2617-1.1777,8.1212-1.9789,8.1212-1.9789,0,0-.4422,3.5287,1.3352,8.0993s5.6869,12.7575,5.6869,12.7575c0,0,1.9703-10.5642,.8363-15.1128-1.1338-4.5487-.3589-8.3882-.3589-8.3882,0,0,4.4173,2.7275,6.2387,6.011,1.8211,3.2835,5.2183,7.5871,5.2183,7.5871,0,0,4.4789-8.5459-4.6229-15.6207-9.1019-7.0748-11.8074-3.3011-11.8074-3.3011Z" style="fill:#3A1078;"></path><path d="M118.0418,404.3942s4.9318-2.4384,5.1201-10.6448c.1884-8.2065-5.0252-14.4147-5.0252-14.4147,0,0,.6923,7.2666-.5692,10.4967-1.2616,3.2301-3.8587,7.4148-3.8587,7.4148,0,0-2.3645-2.6563-6.9746-4.3285-4.6101-1.6721-13.3458-4.121-13.3458-4.121,0,0,6.6529,8.4392,10.8229,10.5811,4.1699,2.1422,6.5492,5.2535,6.5492,5.2535,0,0-4.9616,1.5284-8.632,.7369-3.6704-.7916-9.1463-1.0689-9.1463-1.0689,0,0,3.4821,8.998,14.8001,6.8071,11.3179-2.1909,10.2595-6.7122,10.2595-6.7122Z" style="fill:#3A1078;"></path></g><g><path d="M24.439,377.1308s-4.52-.8214-8.7327,4.5855c-4.2127,5.407-3.8096,12.1646-3.8096,12.1646,0,0,3.1546-5.2156,5.6086-6.7525s6.2786-3.0488,6.2786-3.0488c0,0,.2621,2.958,2.5198,6.3745,2.2573,3.4166,6.8935,9.408,6.8935,9.408,0,0-.2571-8.9696-1.9856-12.4819-1.7283-3.5121-1.7737-6.7826-1.7737-6.7826,0,0,4.0866,1.4463,6.1528,3.8046,2.066,2.3583,5.5985,5.2708,5.5985,5.2708,0,0,2.1466-7.7652-6.5308-11.9325-8.6774-4.1673-10.2194-.6097-10.2194-.6097Z" style="fill:#3A1078;"></path><path d="M41.1892,389.673s-1.4447,4.3611,3.3212,9.2875c4.7657,4.9266,11.5132,5.4709,11.5132,5.4709,0,0-4.724-3.8518-5.9032-6.4964-1.179-2.6447-2.1419-6.6431-2.1419-6.6431,0,0,2.9655,.1537,6.6638-1.6047,3.6983-1.7583,10.2785-5.5122,10.2785-5.5122,0,0-8.9178-.9979-12.6369,.2231-3.7192,1.221-6.9638,.8093-6.9638,.8093,0,0,2.0027-3.8447,4.6264-5.5613,2.6236-1.7165,6.001-4.8077,6.001-4.8077,0,0-7.3894-3.2098-12.7277,4.8006-5.3382,8.0104-2.0306,10.034-2.0306,10.034Z" style="fill:#3A1078;"></path><path d="M35.9258,394.0668s-5.0827-2.1059-11.3826,3.1565c-6.3,5.2623-7.5388,13.274-7.5388,13.274,0,0,5.0126-5.3061,8.2743-6.4839,3.2615-1.1775,8.121-1.9788,8.121-1.9788,0,0-.4422,3.5287,1.3354,8.0994,1.7775,4.5705,5.6869,12.7575,5.6869,12.7575,0,0,1.9701-10.5642,.8363-15.1129-1.134-4.5486-.3591-8.3882-.3591-8.3882,0,0,4.4174,2.7275,6.2386,6.011s5.2186,7.587,5.2186,7.587c0,0,4.4787-8.5457-4.6231-15.6206-9.1019-7.0749-11.8075-3.301-11.8075-3.301Z" style="fill:#3A1078;"></path><path d="M40.2129,390.5976s4.9319-2.4386,5.1203-10.645c.1882-8.2064-5.0254-14.4146-5.0254-14.4146,0,0,.6923,7.2666-.5692,10.4967-1.2615,3.2302-3.8588,7.4149-3.8588,7.4149,0,0-2.3642-2.6566-6.9744-4.3285-4.6103-1.6723-13.3458-4.1211-13.3458-4.1211,0,0,6.6529,8.4392,10.8228,10.5811,4.1699,2.1421,6.5491,5.2536,6.5491,5.2536,0,0-4.9615,1.5283-8.6318,.7368-3.6704-.7917-9.1463-1.0688-9.1463-1.0688,0,0,3.4822,8.9979,14.8,6.8071,11.3179-2.191,10.2595-6.7122,10.2595-6.7122Z" style="fill:#3A1078;"></path></g><g><path d="M52.6847,379.0912s-4.52-.8213-8.7326,4.5856c-4.2127,5.407-3.8096,12.1645-3.8096,12.1645,0,0,3.1546-5.2155,5.6085-6.7525,2.4541-1.5368,6.2787-3.0486,6.2787-3.0486,0,0,.2621,2.9579,2.5197,6.3745,2.2574,3.4165,6.8933,9.4079,6.8933,9.4079,0,0-.2568-8.9695-1.9853-12.4818-1.7283-3.5123-1.7739-6.7827-1.7739-6.7827,0,0,4.0868,1.4463,6.1528,3.8045,2.0661,2.3584,5.5985,5.2709,5.5985,5.2709,0,0,2.1466-7.7653-6.5307-11.9325-8.6774-4.1673-10.2194-.6098-10.2194-.6098Z" style="fill:#3A1078;"></path><path d="M69.4348,391.6335s-1.4445,4.3611,3.3211,9.2876c4.7658,4.9265,11.5134,5.4707,11.5134,5.4707,0,0-4.7238-3.8518-5.9031-6.4963-1.1792-2.6447-2.142-6.6431-2.142-6.6431,0,0,2.9655,.1536,6.6637-1.6047,3.6984-1.7583,10.2785-5.5122,10.2785-5.5122,0,0-8.9176-.9979-12.6367,.223-3.7193,1.2211-6.964,.8094-6.964,.8094,0,0,2.0028-3.8448,4.6265-5.5614,2.6236-1.7164,6.001-4.8075,6.001-4.8075,0,0-7.3895-3.2099-12.7276,4.8005-5.3383,8.0104-2.0308,10.034-2.0308,10.034Z" style="fill:#3A1078;"></path><path d="M64.1716,396.0272s-5.0829-2.1057-11.3826,3.1566c-6.3001,5.2623-7.539,13.274-7.539,13.274,0,0,5.0128-5.3061,8.2743-6.4838,3.2616-1.1776,8.1211-1.9789,8.1211-1.9789,0,0-.4421,3.5287,1.3353,8.0994,1.7776,4.5705,5.687,12.7575,5.687,12.7575,0,0,1.9702-10.5642,.8361-15.1129-1.1338-4.5487-.3588-8.3882-.3588-8.3882,0,0,4.4173,2.7275,6.2385,6.011,1.8213,3.2835,5.2186,7.5871,5.2186,7.5871,0,0,4.4787-8.5459-4.623-15.6207-9.1019-7.0749-11.8075-3.3011-11.8075-3.3011Z" style="fill:#3A1078;"></path><path d="M68.4587,392.558s4.9318-2.4384,5.12-10.6449c.1883-8.2064-5.025-14.4145-5.025-14.4145,0,0,.6921,7.2665-.5694,10.4966-1.2615,3.2302-3.8587,7.4148-3.8587,7.4148,0,0-2.3642-2.6564-6.9745-4.3285-4.6101-1.6721-13.3459-4.1211-13.3459-4.1211,0,0,6.653,8.4393,10.823,10.5812,4.1699,2.142,6.549,5.2536,6.549,5.2536,0,0-4.9615,1.5284-8.6319,.7368-3.6703-.7918-9.1461-1.0689-9.1461-1.0689,0,0,3.482,8.998,14.8,6.8071,11.3178-2.1909,10.2595-6.7122,10.2595-6.7122Z" style="fill:#3A1078;"></path></g><g><path d="M86.2049,413.2321s-4.52-.8214-8.7328,4.5856c-4.2127,5.4071-3.8095,12.1645-3.8095,12.1645,0,0,3.1545-5.2156,5.6085-6.7524,2.4541-1.537,6.2787-3.0488,6.2787-3.0488,0,0,.262,2.958,2.5196,6.3745,2.2575,3.4164,6.8936,9.4081,6.8936,9.4081,0,0-.257-8.9697-1.9855-12.4821-1.7285-3.5121-1.7738-6.7825-1.7738-6.7825,0,0,4.0867,1.4462,6.1528,3.8045,2.066,2.3583,5.5985,5.2709,5.5985,5.2709,0,0,2.1464-7.7654-6.5308-11.9326-8.6773-4.1673-10.2193-.6097-10.2193-.6097Z" style="fill:#3A1078;"></path><path d="M102.955,425.7744s-1.4446,4.361,3.321,9.2875c4.7659,4.9264,11.5134,5.4708,11.5134,5.4708,0,0-4.7239-3.8518-5.9031-6.4964-1.179-2.6446-2.142-6.6428-2.142-6.6428,0,0,2.9656,.1535,6.6638-1.6049,3.6982-1.7583,10.2786-5.5122,10.2786-5.5122,0,0-8.9178-.998-12.6369,.223-3.7192,1.2211-6.964,.8093-6.964,.8093,0,0,2.0028-3.8447,4.6264-5.5611,2.6237-1.7166,6.0011-4.8076,6.0011-4.8076,0,0-7.3895-3.2101-12.7276,4.8004-5.3383,8.0104-2.0307,10.034-2.0307,10.034Z" style="fill:#3A1078;"></path><path d="M96.9788,423.7523s-5.0828-2.1059-11.3826,3.1565c-6.3,5.2622-7.539,13.2739-7.539,13.2739,0,0,5.0129-5.3061,8.2744-6.4836,3.2615-1.1778,8.1211-1.9788,8.1211-1.9788,0,0-.4421,3.5285,1.3354,8.0991,1.7775,4.5707,5.6868,12.7574,5.6868,12.7574,0,0,1.9702-10.564,.8362-15.1127-1.1338-4.5487-.3589-8.3881-.3589-8.3881,0,0,4.4173,2.7274,6.2385,6.0109s5.2186,7.587,5.2186,7.587c0,0,4.4788-8.5457-4.623-15.6205-9.1019-7.0749-11.8075-3.3011-11.8075-3.3011Z" style="fill:#3A1078;"></path><path d="M101.9787,426.6988s4.9319-2.4384,5.1202-10.6447c.1884-8.2065-5.0252-14.4148-5.0252-14.4148,0,0,.6923,7.2666-.5692,10.4968-1.2616,3.2301-3.8588,7.4147-3.8588,7.4147,0,0-2.3643-2.6563-6.9745-4.3285-4.6102-1.6721-13.3458-4.1209-13.3458-4.1209,0,0,6.6529,8.4392,10.8228,10.5811,4.1699,2.1421,6.5492,5.2535,6.5492,5.2535,0,0-4.9616,1.5283-8.6319,.7368-3.6704-.7915-9.1463-1.0689-9.1463-1.0689,0,0,3.5227,9.1984,14.8,6.8071,14.1709-3.0048,10.864-6.8845,10.2595-6.7122Z" style="fill:#3A1078;"></path></g><path d="M69.5156,423.6868s-1.016,3.0674,2.3362,6.5327c3.3522,3.4651,8.0984,3.848,8.0984,3.848,0,0-3.3228-2.7093-4.1523-4.5694-.8295-1.8603-1.5066-4.6726-1.5066-4.6726,0,0,2.0858,.108,4.6872-1.1287,2.6013-1.2367,7.2297-3.8772,7.2297-3.8772,0,0-6.2726-.702-8.8885,.1568-2.6161,.8589-4.8984,.5693-4.8984,.5693,0,0,1.4088-2.7044,3.2541-3.9117,1.8456-1.2074,4.2211-3.3816,4.2211-3.3816,0,0-5.1976-2.2578-8.9525,3.3765-3.7546,5.6344-1.4284,7.0579-1.4284,7.0579Z" style="fill:#3A1078;"></path><path d="M65.8136,426.7773s-3.5752-1.4813-8.0065,2.2202c-4.4312,3.7014-5.3028,9.3367-5.3028,9.3367,0,0,3.5261-3.7322,5.8202-4.5606,2.2941-.8283,5.7123-1.3919,5.7123-1.3919,0,0-.3111,2.4821,.9392,5.697,1.2502,3.215,4.0002,8.9735,4.0002,8.9735,0,0,1.3857-7.4308,.588-10.6303-.7974-3.1994-.2524-5.9001-.2524-5.9001,0,0,3.1071,1.9184,4.3882,4.2281,1.281,2.3095,3.6706,5.3365,3.6706,5.3365,0,0,3.1503-6.0108-3.2519-10.9873-6.402-4.9763-8.3051-2.3218-8.3051-2.3218Z" style="fill:#3A1078;"></path><path d="M68.829,424.3371s3.4691-1.7153,3.6014-7.4876c.1326-5.7722-3.5345-10.139-3.5345-10.139,0,0,.4869,5.1112-.4006,7.3832-.8872,2.2721-2.714,5.2156-2.714,5.2156,0,0-1.6631-1.8686-4.9057-3.0447-3.2429-1.1762-9.3874-2.8987-9.3874-2.8987,0,0,4.6795,5.936,7.6125,7.4427,2.9332,1.5067,4.6067,3.6953,4.6067,3.6953,0,0-3.4899,1.0749-6.0716,.5182-2.5816-.5568-6.4333-.7518-6.4333-.7518,0,0,2.4493,6.3291,10.4101,4.7879,7.9609-1.541,7.2164-4.7211,7.2164-4.7211Z" style="fill:#3A1078;"></path><path d="M99.5675,231.4858s-1.016,3.0674,2.3361,6.5328c3.352,3.4651,8.0984,3.8479,8.0984,3.8479,0,0-3.3228-2.7092-4.1522-4.5694-.8296-1.8602-1.5068-4.6725-1.5068-4.6725,0,0,2.086,.1079,4.6873-1.1288,2.6013-1.2367,7.2297-3.8772,7.2297-3.8772,0,0-6.2725-.7019-8.8886,.1569-2.616,.8588-4.8982,.5692-4.8982,.5692,0,0,1.4086-2.7043,3.2541-3.9117,1.8454-1.2074,4.221-3.3815,4.221-3.3815,0,0-5.1976-2.2579-8.9524,3.3765-3.7548,5.6344-1.4284,7.0578-1.4284,7.0578Z" style="fill:#3A1078;"></path><path d="M95.8654,234.5763s-3.5751-1.4812-8.0064,2.2202-5.3028,9.3368-5.3028,9.3368c0,0,3.5259-3.7323,5.82-4.5607,2.2943-.8282,5.7124-1.3919,5.7124-1.3919,0,0-.311,2.4822,.9391,5.697,1.2503,3.2149,4.0002,8.9734,4.0002,8.9734,0,0,1.3858-7.4306,.5882-10.6302-.7975-3.1993-.2524-5.9-.2524-5.9,0,0,3.107,1.9183,4.388,4.228,1.281,2.3096,3.6707,5.3367,3.6707,5.3367,0,0,3.1501-6.011-3.2518-10.9874-6.4021-4.9763-8.3052-2.3219-8.3052-2.3219Z" style="fill:#3A1078;"></path><path d="M98.8809,232.1361s3.469-1.7153,3.6014-7.4875c.1325-5.7724-3.5346-10.1391-3.5346-10.1391,0,0,.4868,5.1112-.4005,7.3832-.8873,2.2721-2.7141,5.2157-2.7141,5.2157,0,0-1.6629-1.8686-4.9058-3.0448-3.2428-1.1762-9.3873-2.8987-9.3873-2.8987,0,0,4.6796,5.9361,7.6127,7.4427,2.9331,1.5067,4.6065,3.6953,4.6065,3.6953,0,0-3.4898,1.075-6.0715,.5183-2.5817-.5569-6.4333-.7519-6.4333-.7519,0,0,2.4492,6.3292,10.4101,4.7879,7.9609-1.541,7.2164-4.7211,7.2164-4.7211Z" style="fill:#3A1078;"></path><path d="M124.7752,313.0269s-1.016,3.0674,2.3361,6.5327c3.3523,3.4651,8.0983,3.848,8.0983,3.848,0,0-3.3227-2.7093-4.1521-4.5694-.8294-1.8603-1.5067-4.6725-1.5067-4.6725,0,0,2.086,.1079,4.6872-1.1288,2.6013-1.2369,7.2297-3.8772,7.2297-3.8772,0,0-6.2725-.7022-8.8885,.1568-2.6161,.8589-4.8982,.5691-4.8982,.5691,0,0,1.4086-2.7042,3.2542-3.9115,1.8452-1.2074,4.221-3.3817,4.221-3.3817,0,0-5.1976-2.2577-8.9526,3.3766-3.7547,5.6344-1.4284,7.0579-1.4284,7.0579Z" style="fill:#3A1078;"></path><path d="M121.0732,316.1174s-3.5752-1.4813-8.0065,2.2201c-4.4313,3.7015-5.3028,9.3368-5.3028,9.3368,0,0,3.526-3.7322,5.8201-4.5606,2.2942-.8283,5.7124-1.3919,5.7124-1.3919,0,0-.311,2.4821,.9391,5.697,1.2503,3.2148,4.0002,8.9735,4.0002,8.9735,0,0,1.3858-7.4308,.5882-10.6303-.7976-3.1994-.2525-5.9001-.2525-5.9001,0,0,3.1071,1.9184,4.3881,4.2281,1.281,2.3095,3.6706,5.3365,3.6706,5.3365,0,0,3.1504-6.0108-3.2517-10.9873-6.4021-4.9763-8.3052-2.3218-8.3052-2.3218Z" style="fill:#3A1078;"></path><path d="M124.0886,313.6772s3.4691-1.7153,3.6015-7.4876c.1323-5.7722-3.5347-10.139-3.5347-10.139,0,0,.4869,5.1112-.4004,7.3832-.8872,2.2721-2.7141,5.2156-2.7141,5.2156,0,0-1.6631-1.8686-4.9058-3.0447-3.2428-1.1762-9.3874-2.8987-9.3874-2.8987,0,0,4.6797,5.936,7.6127,7.4427s4.6066,3.6953,4.6066,3.6953c0,0-3.49,1.0749-6.0716,.5182-2.5816-.5568-6.4332-.7518-6.4332-.7518,0,0,2.4492,6.3291,10.4101,4.7879,7.9609-1.541,7.2163-4.7211,7.2163-4.7211Z" style="fill:#3A1078;"></path></g></g></g></g><g id="freepik--Device--inject-27"><g><g><g><polygon points="173.6655 449.27 114.6139 449.27 123.4716 416.6735 164.8078 416.6735 173.6655 449.27" style="fill:#bababa; stroke:#263238; stroke-miterlimit:10;"></polygon><polygon points="169.6529 434.5037 164.8078 416.6735 123.4716 416.6735 118.6265 434.5037 169.6529 434.5037" style="fill:#263238; stroke:#263238; stroke-linecap:round; stroke-linejoin:round;"></polygon><rect x="99.2604" y="449.27" width="89.7585" height="3.3068" style="fill:#bababa; stroke:#263238; stroke-miterlimit:10;"></rect></g><rect x="26.1417" y="258.0303" width="235.99599" height="162.0649" style="fill:#bababa; stroke:#263238; stroke-miterlimit:10;"></rect><polygon points="94.1265 413.9172 34.3238 413.9172 34.3238 264.2084 253.95559 264.2084 253.95559 413.9172 100.121 413.9172 94.1265 413.9172" style="fill:#f7f7f7; stroke:#263238; stroke-miterlimit:10;"></polygon><polygon points="94.1265 413.9172 34.3238 413.9172 34.3238 406.06 253.95559 406.06 253.95559 413.9172 100.121 413.9172 94.1265 413.9172" style="fill:#f7f7f7; stroke:#263238; stroke-miterlimit:10;"></polygon></g><g><polygon points="50.1535 280.8511 50.1535 278.9281 42.3935 278.9281 42.3935 280.8511 42.3935 292.2708 59.1152 292.2708 59.1152 280.8511 50.1535 280.8511" style="fill:#f7f7f7; stroke:#263238; stroke-miterlimit:10;"></polygon><rect x="42.3935" y="282.9687" width="16.7217" height="9.7303" style="fill:#f7f7f7; stroke:#263238; stroke-miterlimit:10;"></rect></g><g><polygon points="50.1535 301.3156 50.1535 299.3925 42.3935 299.3925 42.3935 301.3156 42.3935 312.7352 59.1152 312.7352 59.1152 301.3156 50.1535 301.3156" style="fill:#f7f7f7; stroke:#263238; stroke-miterlimit:10;"></polygon><rect x="42.3935" y="303.4331" width="16.7217" height="9.7304" style="fill:#f7f7f7; stroke:#263238; stroke-miterlimit:10;"></rect></g><g><polygon points="82.3208 301.3156 82.3208 299.3925 74.5608 299.3925 74.5608 301.3156 74.5608 312.7352 91.2825 312.7352 91.2825 301.3156 82.3208 301.3156" style="fill:#f7f7f7; stroke:#263238; stroke-miterlimit:10;"></polygon><rect x="74.5608" y="303.4331" width="16.7217" height="9.7304" style="fill:#f7f7f7; stroke:#263238; stroke-miterlimit:10;"></rect></g><g><polygon points="50.1535 321.78 50.1535 319.857 42.3935 319.857 42.3935 321.78 42.3935 333.1997 59.1152 333.1997 59.1152 321.78 50.1535 321.78" style="fill:#f7f7f7; stroke:#263238; stroke-miterlimit:10;"></polygon><rect x="42.3935" y="323.8976" width="16.7217" height="9.7303" style="fill:#f7f7f7; stroke:#263238; stroke-miterlimit:10;"></rect></g><g><polygon points="50.1535 342.2445 50.1535 340.3214 42.3935 340.3214 42.3935 342.2445 42.3935 353.6641 59.1152 353.6641 59.1152 342.2445 50.1535 342.2445" style="fill:#f7f7f7; stroke:#263238; stroke-miterlimit:10;"></polygon><rect x="42.3935" y="344.362" width="16.7217" height="9.7304" style="fill:#f7f7f7; stroke:#263238; stroke-miterlimit:10;"></rect></g><g><polygon points="82.3208 342.2445 82.3208 340.3214 74.5608 340.3214 74.5608 342.2445 74.5608 353.6641 91.2825 353.6641 91.2825 342.2445 82.3208 342.2445" style="fill:#f7f7f7; stroke:#263238; stroke-miterlimit:10;"></polygon><rect x="74.5608" y="344.362" width="16.7217" height="9.7304" style="fill:#f7f7f7; stroke:#263238; stroke-miterlimit:10;"></rect></g></g></g><g id="freepik--Character--inject-27"><g><g><g><polygon points="273.75309 328.7367 303.20239 410.1181 282.61959 430.701 277.23639 428.1677 254.12019 334.4365 273.75309 328.7367" style="fill:#fff; stroke:#263238; stroke-miterlimit:10;"></polygon><g><path d="M249.32759,273.6472s4.7068,5.0133,6.1161,8.2162c1.40931,3.203,10.6339,18.5772,10.6339,18.5772,0,0-3.203-3.4592-.64059-9.3526,2.56229-5.8935,6.27779-5.1248,6.27779-3.8436s3.0748,12.2994,5.8934,15.118,3.7155,7.9433,3.7155,14.7336-2.0499,13.0681-3.0749,14.8617c-1.0249,1.7937-7.1746,3.5873-10.1213,2.4343-2.9468-1.1531-6.6622,3.5873-11.27449,4.4841-4.61221,.8968-11.65871-6.7903-14.86171-8.712-3.2029-1.9218-7.3027-4.7404-7.3027-4.7404,0,0-1.5374-4.0998-.5125-5.6372,1.02491-1.5375,1.9218-4.4842,1.9218-4.4842,0,0-8.8402-14.8617-8.0715-16.6554,.7687-1.7936,13.3243,3.8436,13.3243,3.8436,0,0-8.8401-16.271-7.9433-18.5772,.8968-2.3061,4.356-3.2029,4.99661-2.9467,.64059,.2562,10.89009,16.3992,10.89009,16.3992,0,0-2.5624-12.4275-3.4592-14.8618-.89689-2.4342-2.04989-5.8934-1.025-7.1746,1.025-1.2812,4.5177-1.6822,4.5177-1.6822Z" style="fill:#fff; stroke:#263238; stroke-miterlimit:10;"></path><path d="M249.32759,273.6472c-.1458-.8878-.9807-1.4898-1.8683-1.3431-1.8168,.3002-4.7419,.9863-6.3344,2.4341-2.42189,2.2017,2.532,9.047,3.685,11.6094,1.15311,2.5623,2.9467,3.2029,4.4842,1.153,1.5374-2.0498,1.02491-5.7653,.6406-9.3526-.2002-1.8677-.4314-3.4312-.6071-4.5008Z" style="fill:#fff; stroke:#263238; stroke-miterlimit:10;"></path><path d="M236.35409,277.8918s-5.381,2.4342-5.381,4.6122,3.07491,7.3028,4.4842,8.8402c1.4093,1.5374,5.5091,1.2812,6.14971-.3844,.64059-1.6655-1.025-7.8152-1.92181-10.5057-.8968-2.6904-1.1531-3.4592-3.3311-2.5623Z" style="fill:#fff; stroke:#263238; stroke-miterlimit:10;"></path><path d="M226.74519,294.9315s-2.9467,5.6372-1.6655,7.1746c1.2812,1.5375,7.94331,4.7404,9.4808,3.8436,1.5374-.8968,2.3061-2.9467,1.153-4.4842-1.153-1.5374-4.0998-5.509-5.8934-6.6621-1.7937-1.1531-2.0499-1.1531-3.0749,.1281Z" style="fill:#fff; stroke:#263238; stroke-miterlimit:10;"></path><path d="M232.12619,315.4304s-3.3311,6.2778-2.0499,7.3028c1.2812,1.0249,9.35271,3.8435,11.6588,2.4342,2.3061-1.4093,.7687-4.6122-2.178-6.7902-2.9468-2.178-6.1497-3.9717-7.4309-2.9468Z" style="fill:none; stroke:#263238; stroke-miterlimit:10;"></path><path d="M266.07759,300.4406l2.4342,4.9966s-4.9966,7.6871-6.4059,10.5057,1.9218,9.0964,1.9218,9.0964" style="fill:none; stroke:#263238; stroke-miterlimit:10;"></path><path d="M241.86319,306.334s5.8934-5.509,10.5057-7.8152" style="fill:none; stroke:#263238; stroke-miterlimit:10;"></path><path d="M249.42219,289.1662s3.8435-1.7937,4.09981-6.0216" style="fill:none; stroke:#263238; stroke-miterlimit:10;"></path><path d="M238.91649,295.7002s5.2528-.2562,5.3809-3.9716" style="fill:none; stroke:#263238; stroke-miterlimit:10;"></path></g></g><path d="M246.53419,205.3587c2.2129,5.6903-2.5291,15.1743,4.1097,23.3936,6.6387,8.2195,23.3937,25.6067,29.7163,26.2389,6.3226,.6323,15.1743-6.0065,15.1743-6.0065,0,0,5.3742,5.0581,7.9032,13.2775,2.5291,8.2195,2.213,12.013,.3162,23.7099-1.8968,11.6968-5.6904,25.9227-16.1227,45.839-10.4323,19.9162-15.4904,29.7163-14.542,39.2002s9.4839,33.5099,9.4839,33.5099c0,0-6.6387,5.3742-7.271,15.4904s-.6323,14.2259-.6323,14.2259c0,0-2.529,1.5806-5.6903,6.6387l-3.1614,5.0581-12.1469,6.6146h118.9366c2.0125-5.4246,13.3738-39.4921,13.9724-67.6279,.6323-29.7163,2.8451-65.7552-7.58719-95.7876-10.43231-30.0324-29.084-47.1036-38.88411-60.3811-9.8-13.2774-11.3807-17.071-15.4904-24.6582-4.1097-7.5871-1.8968-8.8516-1.8968-8.8516,0,0,2.8452-2.8452,4.4259-11.6968,1.5806-8.8517-4.1097-19.9163-11.3808-18.9679-7.2709,.9484-9.1677,11.6968-10.7484,15.1742-1.5807,3.4775-5.6903-9.8-5.6903-9.8,0,0-4.4259,2.2129-12.3292-3.1613-7.9032-5.3742-5.6903-16.4388-5.6903-16.4388,0,0-3.1613,6.6387-4.742,7.271-1.58059,.6323-.9484-8.5356-.9484-8.5356,0,0-24.9743,22.1292-30.6647,23.7099-5.6903,1.5806-1.8968-17.0711-1.8968-17.0711,0,0-10.7484,20.2324-7.271,29.084,3.4775,8.8517,8.5356,14.8582,10.7485,20.5486Z" style="fill:#3A1078; stroke:#263238; stroke-miterlimit:10;"></path><g><path d="M224.39259,118.8576s-15.8364,14.8467-13.6094,19.0533c2.227,4.2065,10.3927,1.7321,10.3927,1.7321,0,0-25.2394,31.673-17.5686,45.2824,7.6708,13.6095,27.7138,3.4643,27.7138,3.4643,0,0,1.9796,10.6401,4.94891,10.6401s9.15549-2.7219,9.15549-2.7219c0,0,12.8671-18.8058,29.6934-20.2905s35.63211,10.8876,38.1065,15.5891c2.4745,4.7014,13.857,23.2598,16.084,22.7649s.2474-8.6606,2.227-13.6095c1.9795-4.9489,8.6605-9.6503,9.8978-8.908,1.2372,.7423,2.7219,1.7321,3.9591,0s1.48471-5.6912,1.48471-5.6912c0,0,2.227,8.4131,6.43349,4.9489,4.2066-3.4643,5.6913-21.0329,2.7219-36.127-2.9693-15.0942-24.0021-35.8796-27.9613-35.8796,0,0,4.2066-3.2167,2.4745-5.6912-1.7321-2.4744-10.88759-4.2066-18.3109-.7423-7.4234,3.4642-10.6402,5.1963-10.6402,5.1963,0,0-4.454-11.3825-31.673-13.1146-27.2189-1.7321-45.5299,14.1044-45.5299,14.1044Z" style="fill:#263238; stroke:#263238; stroke-miterlimit:10;"></path><g><path d="M340.10889,228.7524c-9.8-13.2776-11.3807-17.0711-15.4904-24.6583-4.1097-7.5871-1.8968-8.8516-1.8968-8.8516,0,0,2.8452-2.8452,4.4259-11.6969,1.5806-8.8516-4.1098-19.9162-11.3807-18.9679-7.2711,.9485-9.16789,11.6969-10.7485,15.1744-1.5806,3.4774-5.6903-9.8001-5.6903-9.8001,0,0-4.4259,2.2129-12.32909-3.1613-7.90331-5.3742-5.69041-16.4388-5.69041-16.4388,0,0-3.1613,6.6387-4.742,7.271-1.58059,.6323-.9484-8.5356-.9484-8.5356,0,0-24.9743,22.1292-30.6647,23.7099s-1.8967-17.0711-1.8967-17.0711c0,0-10.7485,20.2324-7.2711,29.0841,3.4774,8.8516,8.5355,14.8581,10.7485,20.5485,2.2129,5.6903-2.5291,15.1742,4.1097,23.3937,6.6387,8.2194,23.3937,25.6065,29.7163,26.2388,6.3226,.6323,15.1743-6.0065,15.1743-6.0065,0,0,5.3742,5.0582,7.9033,13.2775,2.529,8.2195,2.2128,12.013,.3161,23.7099-.9028,5.5668-2.2466,11.7177-4.5198,18.7711,1.0501,1.7031,3.3925,1.654,8.6295-7.0743,9.4839-15.8065,19.284-38.5679,31.9292-43.9422,7.702-3.2733,14.0987-3.4939,17.9348-3.1689-6.6409-8.6885-13.0795-15.6556-17.6187-21.8054Z" style="fill:#fff; stroke:#263238; stroke-miterlimit:10;"></path><polygon points="295.53449 248.9847 309.12809 236.0234 302.80549 258.1526 295.53449 248.9847" style="fill:#263238; stroke:#263238; stroke-miterlimit:10;"></polygon><path d="M322.72169,195.2425s-2.2129,6.0065-5.3742,6.9549-4.1097-1.8968-4.1097-1.8968c0,0,2.5291,7.9033,.9484,12.3291" style="fill:none; stroke:#263238; stroke-miterlimit:10;"></path><path d="M255.702,187.6554s8.21939,7.9032,8.21939,14.8581" style="fill:none; stroke:#263238; stroke-miterlimit:10;"></path><path d="M264.12359,212.0008s0,2.7405,1.68641,4.4269c1.68649,1.6865,5.27019,.4217,5.27019,.4217" style="fill:none; stroke:#263238; stroke-miterlimit:10;"></path><path d="M274.03149,214.1089s4.8486-3.5838,4.8486-2.3189c0,1.2648-2.9513,2.7405-2.9513,2.7405" style="fill:none; stroke:#263238; stroke-miterlimit:10;"></path><path d="M277.19359,225.0708s3.5837-12.6484,9.908-10.9619" style="fill:none; stroke:#263238; stroke-miterlimit:10;"></path><path d="M258.442,198.7101c1.42249,2.2687,1.816,4.5842,.879,5.1717-.93711,.5876-2.84991-.7753-4.27241-3.044s-1.816-4.5842-.8789-5.1717c.937-.5876,2.8499,.7753,4.27231,3.044Z" style="fill:#263238;"></path><path d="M283.63349,186.0617c1.42251,2.2687,1.816,4.5842,.8789,5.1717-.9371,.5876-2.8499-.7753-4.27239-3.044-1.42241-2.2687-1.816-4.5842-.87891-5.1717,.9371-.5876,2.84991,.7753,4.2724,3.044Z" style="fill:#263238;"></path><path d="M264.12359,176.5852s1.68641,2.108,3.1621,.4216c1.4756-1.6865,2.3189-6.1134,8.43231-6.1134s4.42689-1.8973,1.89719-2.5297-10.962,.4216-12.6484,2.9513c-1.6865,2.5297-.8432,5.2702-.8432,5.2702Z" style="fill:#263238; stroke:#263238; stroke-miterlimit:10;"></path><path d="M255.89849,190.6212s-4.6209-2.7447-7.6371-1.7953c-3.0163,.9494-6.5086,6.4244-4.6967,5.7215,1.812-.7029,4.453-3.1254,4.453-3.1254,0,0,3.5679,1.9269,6.1052,1.7029,2.5374-.2241,2.3497-.9606,1.7756-2.5037Z" style="fill:#263238; stroke:#263238; stroke-miterlimit:10;"></path></g></g><g><path d="M379.77089,320.2374c-1.3375,12.3717-9.3623,35.7775-20.0621,51.8271-10.69979,16.0497-24.4089,40.1242-33.4369,38.4524-9.02789-1.6718-96.6324-65.5362-96.6324-65.5362,0,0-49.4866-40.793-50.824-41.4617-1.3375-.6687-15.7843-6.015-18.359-10.4286-2.5746-4.4137-5.8849-11.7698-5.8849-11.7698,0,0-8.4595,3.678-9.5629,4.0458-1.1034,.3679-8.0917,9.563-11.0342,10.6664-2.9424,1.1034-1.4712-4.7815-.3678-5.5171s7.7239-12.1376,8.8274-13.241c1.1034-1.1034,6.6205-4.7814,6.6205-4.7814,0,0-8.8274,.3678-12.1376,1.4712-3.3103,1.1034-9.9308,1.839-14.7122,2.9424-4.7815,1.1034-1.8391-5.5171,1.839-6.2527,3.678-.7356,16.919-5.517,16.919-5.517l13.241-1.1035s-17.2868-4.4136-19.8615-4.4136-14.114,1.3305-14.6034-1.3609c-.4893-2.6914,5.6275-3.67,10.5209-4.6487s11.2549-2.4468,11.2549-2.4468l25.4459,5.3828s-15.4143-8.0741-19.0844-10.2762c-3.6701-2.202-11.0102-2.6914-11.0102-4.4041s2.936-1.9574,4.8934-1.9574,16.1483,4.1595,21.0418,5.6275c4.8934,1.468,21.0418,7.5848,22.9991,10.2762,1.9574,2.6914,12.3436,35.1432,12.3436,35.1432,0,0,49.11111,28.5025,64.6466,35.3753,11.4303,5.0567,43.6764,18.675,43.6764,18.675,0,0,0-2.8916,.8897-3.5589s2.6691-.8897,2.6691-.8897c0,0,7.7851-28.0261,9.7869-37.813,2.0019-9.7868,4.671-30.6952,19.3513-36.0335,14.6804-5.3383,22.6878-2.2243,28.02611,5.3383" style="fill:#fff; stroke:#263238; stroke-miterlimit:10;"></path><path d="M263.15859,333.0131c-.3922,1.2874-2.2408,1.8649-4.129,1.2897-1.8882-.5751-3.101-2.0851-2.7089-3.3725s2.2408-1.8648,4.129-1.2897c1.8882,.5752,3.101,2.0851,2.7089,3.3725Z" style="fill:#3A1078;"></path><path d="M232.61049,319.036c-.1961,.6437-1.1204,.9324-2.06449,.6448-.94411-.2875-1.55051-1.0425-1.35451-1.6862,.1961-.6437,1.1204-.9324,2.06451-.6449,.94409,.2876,1.55059,1.0426,1.35449,1.6863Z" style="fill:#3A1078;"></path><path d="M263.72149,349.5021c-.1961,.6437-1.1204,.9325-2.06449,.6449-.94411-.2876-1.55051-1.0426-1.35441-1.6863,.196-.6437,1.12041-.9324,2.0645-.6448,.9441,.2876,1.5505,1.0425,1.3544,1.6862Z" style="fill:#3A1078;"></path><path d="M337.29259,236.7623c-.3485,.5756-1.3154,.6279-2.1597,.1168-.8442-.5111-1.2461-1.3921-.8976-1.9678,.3484-.5756,1.3154-.6279,2.15971-.1168,.84419,.5112,1.24609,1.3922,.89759,1.9678Z" style="fill:#3A1078;"></path><g><path d="M367.19,272.0492c-5.33831-7.5626-13.34571-10.6765-28.02611-5.3383-14.6803,5.3383-17.3494,26.2467-19.3513,36.0336-2.0019,9.7868-9.7868,37.8129-9.7868,37.8129,0,0-1.7795,.2224-2.6692,.8897s-.8897,3.5589-.8897,3.5589c0,0-3.3558-1.4173-8.2748-3.5024,1.9625,4.8383,4.8942,15.2063,1.8856,29.3901-2.1649,10.2056-6.3788,14.8838-9.9898,17.0242,17.41,11.9782,32.6883,21.9516,36.184,22.599,9.028,1.6718,22.73711-22.4027,33.4369-38.4524,10.6998-16.0497,18.7246-39.4555,20.0621-51.8271" style="fill:#3A1078; stroke:#263238; stroke-miterlimit:10;"></path><path d="M306.46689,345.006s13.6185,14.0649,13.9216,24.3719" style="fill:none; stroke:#263238; stroke-miterlimit:10;"></path><path d="M311.59719,342.3978s13.3385,6.3661,17.5826,18.1889" style="fill:none; stroke:#263238; stroke-miterlimit:10;"></path><path d="M322.81369,357.252s3.9409,9.0945,1.8189,19.0983" style="fill:none; stroke:#263238; stroke-miterlimit:10;"></path></g></g></g><g><path d="M372.60779,451.9329s21.0299-31.6486,28.4303-59.9046,6.0548-74.6766,28.256-80.0587c22.2011-5.3821,47.0933,3.3638,52.4754,21.5284,5.3821,18.1645-6.7276,60.5485-14.128,87.459s-9.4187,31.6198-9.4187,31.6198l-85.615-.6439Z" style="fill:#263238; stroke:#263238; stroke-miterlimit:10;"></path><path d="M310.21519,452.5201s-63.2396-18.8373-92.8411-19.5101-18.6045,16.1296-12.1097,13.4552c11.4369-4.7093,34.98361,6.7277,34.98361,6.7277l69.96719-.6728Z" style="fill:#bababa; stroke:#263238; stroke-miterlimit:10;"></path></g></g></g><g id="freepik--Mosquitoes--inject-27"><g><g><g><g><path d="M399.14729,184.4021c-.0308,.0316-1.9925-1.7506-3.82-2.9336-1.1236-.7274-2.6749-1.4196-3.7784-1.8721-1.1968-.4908-2.1387-.813-2.1481-.8163-.0417-.0142-.0642-.0596-.04979-.1013,.01419-.0417,.05959-.0641,.10129-.0498,.03771,.0129,3.7935,1.3017,5.9618,2.7055,1.8392,1.1905,3.7453,3.0553,3.7332,3.0676Z" style="fill:#263238;"></path><path d="M389.41009,178.525c.094-.0181,.1841,.0392,.2012,.1279,.0171,.0888-.0452,.1755-.13929,.1936-.09391,.0181-.18391-.0391-.20111-.1279-.0171-.0888,.0452-.1755,.1392-.1936Z" style="fill:#263238;"></path><path d="M389.964,174.2787c.03449,.021,.05409,.0617,.04619,.1037-.00619,.0332-.6216,3.3258-.4919,4.3113,.0071,.0546-.03129,.1048-.086,.112-.0546,.0072-.1048-.0313-.112-.0859-.1337-1.0169,.468-4.2376,.4938-4.3742,.0101-.0542,.0623-.0898,.1165-.0797,.0122,.0023,.02341,.0067,.03341,.0128Z" style="fill:#263238;"></path><path d="M399.83519,184.0936c-.0308,.0315-1.9925-1.7506-3.8199-2.9336-1.1236-.7274-2.6749-1.4195-3.7785-1.8721-1.1967-.4908-2.13879-.8131-2.1481-.8162-.0418-.0143-.0641-.0597-.0498-.1013,.0143-.0418,.0596-.0641,.1014-.0499,.0376,.0128,3.7934,1.3017,5.96171,2.7054,1.83919,1.1907,3.74529,3.0553,3.73319,3.0677Z" style="fill:#263238;"></path><path d="M390.09809,178.2165c.09391-.0181,.184,.0392,.2011,.1279,.0171,.0888-.04519,.1755-.13919,.1936-.09391,.0181-.18411-.0392-.20111-.1279-.0171-.0888,.0452-.1754,.1392-.1936Z" style="fill:#263238;"></path><path d="M390.65189,173.9702c.0346,.021,.0542,.0617,.0462,.1038-.00609,.0332-.6216,3.3258-.492,4.3112,.0073,.0546-.0313,.1048-.0859,.112s-.1048-.0313-.112-.086c-.1338-1.0169,.4681-4.2375,.49381-4.3741,.01019-.0542,.06229-.0899,.11649-.0796,.0122,.0022,.02351,.0066,.0334,.0127Z" style="fill:#263238;"></path><path d="M400.26519,183.5237c-.0309,.0316-1.9926-1.7506-3.8201-2.9337-1.1236-.7273-2.6748-1.4194-3.7783-1.872-1.19679-.4907-2.13879-.8131-2.1482-.8163-.0417-.0142-.064-.0595-.0498-.1013,.01421-.0417,.0596-.064,.1013-.0498,.0377,.0129,3.7935,1.3017,5.96191,2.7054,1.83919,1.1907,3.74519,3.0553,3.73319,3.0677Z" style="fill:#263238;"></path><path d="M390.52789,177.6466c.09411-.0182,.18411,.0392,.2012,.128,.0172,.0887-.0452,.1754-.13909,.1935-.094,.0182-.18411-.0392-.20121-.128-.0172-.0887,.0451-.1754,.1391-.1935Z" style="fill:#263238;"></path><path d="M391.08189,173.4003c.0344,.021,.05411,.0618,.0462,.1038-.0063,.0331-.6216,3.3258-.492,4.3112,.0071,.0546-.0313,.1048-.0859,.1119-.0546,.0073-.1048-.0312-.1121-.0858-.1337-1.017,.4681-4.2376,.4938-4.3742,.0102-.0542,.0623-.0898,.1165-.0797,.0122,.0024,.0235,.0068,.0335,.0128Z" style="fill:#263238;"></path><path d="M398.09489,185.4674c-.03089,.0316-1.9927-1.7506-3.8201-2.9336-1.1236-.7275-2.6749-1.4195-3.7784-1.8721-1.1968-.4908-2.1387-.8131-2.1481-.8163-.0418-.0142-.0641-.0596-.0498-.1013,.0143-.0418,.0596-.064,.1013-.0497,.0377,.0127,3.7935,1.3016,5.9618,2.7053,1.8392,1.1907,3.7452,3.0553,3.7333,3.0677Z" style="fill:#263238;"></path><path d="M388.35759,179.5903c.0941-.0181,.1841,.0391,.2012,.1279,.01721,.0888-.0452,.1755-.1392,.1936s-.1841-.0392-.2012-.128c-.0171-.0887,.0453-.1754,.1392-.1935Z" style="fill:#263238;"></path><path d="M388.91149,175.344c.03451,.021,.0541,.0618,.0463,.1038-.0062,.0331-.6217,3.3257-.4921,4.3111,.0072,.0548-.0313,.1048-.0859,.112-.0545,.0073-.1047-.0312-.112-.0859-.1337-1.0169,.4681-4.2376,.4937-4.3741,.0103-.0541,.0624-.0899,.1166-.0796,.0122,.0022,.0234,.0067,.0334,.0127Z" style="fill:#263238;"></path></g><path d="M391.49819,174.7668s.4199,.5767,2.02081,1.4198c1.60089,.843,4.00369,.1542,4.67409,.1791,0,0,.2114,.0634,.2571,.0128,.0457-.0507,.1154,.1464-.1983-.2426-.3138-.389-.5372-1.1915-2.0531-2.6224-1.5161-1.431-4.8139-1.8817-4.8139-1.8817,0,0-2.1504,.6832,.1133,3.135Z" style="fill:#263238;"></path><path d="M394.87379,174.8925c.2355-.703,.2154-1.4639-.0562-2.2717-.2472-.1157-.50159-.2194-.7549-.3121,.40831,.8758,.4961,1.6792,.2582,2.3934-.204,.6128-.6183,1.0686-.9982,1.379,.0636,.0347,.1285,.0698,.19631,.1055,.12349,.065,.25209,.1199,.384,.1677,.38119-.3537,.761-.836,.97079-1.4618Z" style="fill:#fff;"></path><path d="M392.41059,175.5311c.3468-.3436,.68041-.7952,.8719-1.3669,.22-.6566,.21651-1.364-.0063-2.1128-.2391-.0698-.4683-.1297-.6797-.1806,.299,.7635,.34451,1.4685,.1332,2.1031-.16869,.5066-.4814,.9057-.7993,1.2044,.1257,.1018,.2837,.2201,.4802,.3528Z" style="fill:#fff;"></path><path d="M396.57,175.4964c.15759-.4701,.19979-.9663,.13019-1.4849-.1495-.1568-.3157-.3226-.5014-.498-.0907-.0856-.1879-.1676-.2902-.2463,.2766,.7389,.314,1.4222,.1087,2.0389-.1848,.5548-.542,.9809-.8899,1.287,.274,.0177,.5485,.0171,.8157,.0049,.2534-.3013,.4813-.6667,.62691-1.1016Z" style="fill:#fff;"></path><g style="mix-blend-mode:multiply;"><path d="M397.43709,174.8766c-.0072,.258-.04909,.5071-.1286,.7457-.1173,.3525-.3044,.6527-.5143,.9036,.2923-.0345,.5599-.0735,.7887-.1046,.1089-.1857,.2045-.3879,.2784-.6086,.0226-.0673,.0424-.1353,.0603-.2037-.1185-.2008-.2684-.443-.4845-.7324Z" style="fill:#aea892;"></path></g><path d="M391.51139,171.8327s-1.9039-4.4117-3.4031-6.6783c-1.4991-2.2667-1.5655-2.3897-1.6311-2.3293-.0656,.0605-.4531,1.8302,.7445,4.4729,1.1977,2.6428,3.7668,5.5078,3.7668,5.5078,0,0,.462,.1884,.5229-.9731Z" style="fill:#fff; stroke:#263238; stroke-miterlimit:10; stroke-width:.25px;"></path><path d="M391.71969,171.9926s4.1166-2.3587,6.1278-4.0693c2.0112-1.7107,2.1234-1.7893,2.0487-1.8448-.0747-.0554-1.9555-.2115-4.41,1.2561-2.4545,1.4677-4.8624,4.2756-4.8624,4.2756,0,0-.09979,.4653,1.0959,.3824Z" style="fill:#fff; stroke:#263238; stroke-miterlimit:10; stroke-width:.25px;"></path><g><path d="M391.99979,175.7422c-.0194,.0049-.0402,.0056-.0611,.001-.90669-.1978-1.9649-.8232-2.0095-.8497-.0631-.0375-.0839-.119-.0463-.1821,.0375-.0631,.11911-.0839,.1822-.0463,.0105,.0062,1.0662,.6299,1.9303,.8185,.0717,.0156,.1171,.0864,.10161,.1581-.01111,.0508-.05011,.0885-.09721,.1005Z" style="fill:#263238;"></path><path d="M392.889,174.9622c-.018,.0085-.03841,.013-.05971,.0126-.9278-.0216-2.0857-.4341-2.1345-.4517-.0691-.0249-.105-.1009-.0801-.17,.0248-.0691,.1009-.1049,.1699-.0801,.0116,.0042,1.1667,.4156,2.051,.4361,.0733,.0017,.13141,.0625,.1298,.1359-.0013,.052-.0323,.0964-.07639,.1172Z" style="fill:#263238;"></path><path d="M392.978,174.7336c.05059,.1074,.00949,.2331-.09191,.2809-.1014,.0477-.2247-.0005-.2752-.1079-.0505-.1073-.0094-.2331,.0919-.2809,.1014-.0478,.2246,.0005,.27521,.1079Z" style="fill:#263238;"></path><path d="M392.91539,174.6616c.0405,.019,.067,.0618,.0631,.1091-.0029,.0373-.2968,3.7422-.0383,4.8142,.0143,.0595-.0223,.1194-.0818,.1337-.05939,.0143-.1192-.0223-.1335-.0818-.2667-1.1063,.0205-4.7302,.0329-4.8839,.0049-.0609,.0583-.1065,.1193-.1015,.0137,.0011,.0266,.0047,.0383,.0102Z" style="fill:#263238;"></path><path d="M392.82889,179.3787c.1034,.0239,.16911,.1224,.1466,.2202-.02249,.0977-.1246,.1577-.2282,.1339-.1034-.0239-.1691-.1225-.1466-.2202s.1246-.1577,.2282-.1339Z" style="fill:#263238;"></path><path d="M404.564,183.5512c-.02641,.0412-2.55661-1.4573-4.807-2.3347-1.38371-.5395-3.22431-.9449-4.52471-1.1903-1.41029-.2659-2.506-.4057-2.5169-.4071-.0486-.0061-.083-.0504-.0768-.099s.05041-.0829,.099-.0767c.0438,.0055,4.4136,.567,7.0837,1.6081,2.2649,.883,4.753,2.4836,4.74271,2.4997Z" style="fill:#263238;"></path><path d="M393.56879,174.2837c-.0169,.0106-.0365,.0177-.0577,.0198-.9234,.0927-2.1233-.1744-2.174-.1858-.0715-.0162-.1165-.0872-.1004-.1588,.0162-.0716,.0874-.1166,.1589-.1005,.012,.0028,1.2089,.269,2.089,.1806,.073-.0072,.1381,.046,.1455,.119,.0052,.0519-.02009,.0996-.0613,.1257Z" style="fill:#263238;"></path><path d="M393.62889,174.0459c.0634,.1003,.038,.2301-.0566,.29-.0948,.0599-.223,.0271-.2864-.0732s-.038-.2301,.0567-.29c.0948-.0599,.223-.0272,.2863,.0732Z" style="fill:#263238;"></path><path d="M393.558,173.9821c.04249,.0139,.074,.0531,.076,.1005,.00169,.0374,.16569,3.7503,.55389,4.7825,.0215,.0572-.0074,.121-.0646,.1426s-.1211-.0073-.1427-.0647c-.40059-1.0651-.5612-4.6968-.5679-4.8508-.0025-.0612,.0448-.1128,.106-.1155,.0137-.0006,.0269,.0014,.03931,.0054Z" style="fill:#263238;"></path><path d="M394.05209,178.6741c.1057,.0109,.183,.1006,.1726,.2004-.0103,.0998-.1043,.1718-.2099,.161-.1057-.011-.1829-.1007-.1727-.2004,.0103-.0999,.1043-.1719,.21-.161Z" style="fill:#263238;"></path><path d="M406.21129,181.372c-.0211,.0441-2.7165-1.132-5.0577-1.726-1.4394-.3651-3.3159-.5414-4.6367-.6248-1.4323-.0906-2.5368-.0946-2.54789-.0946-.04891-.0001-.08861-.0398-.08831-.0888,.0001-.0489,.0399-.0885,.0888-.0884,.0442,.0002,4.4498,.0201,7.2277,.725,2.3562,.5978,5.0223,1.8803,5.0141,1.8976Z" style="fill:#263238;"></path><path d="M392.13059,175.5348c.0292,.1149-.0351,.2305-.1437,.2581-.1086,.0277-.2203-.0432-.2496-.1582-.02929-.115,.0351-.2307,.1438-.2582,.1086-.0276,.2203,.0432,.2495,.1583Z" style="fill:#263238;"></path><path d="M392.08289,175.4521c.03611,.0264,.0539,.0734,.0412,.1191-.01,.0361-1.0036,3.6173-.954,4.719,.0027,.061-.0446,.1128-.1057,.1156-.061,.0028-.1128-.0445-.1156-.1057-.0511-1.1368,.9206-4.6398,.9619-4.7884,.0165-.0589,.0775-.0933,.1365-.0769,.0132,.0037,.0252,.0097,.0357,.0173Z" style="fill:#263238;"></path><path d="M391.1,180.0666c.09709,.043,.14289,.1523,.10219,.244s-.1524,.1311-.2495,.088-.1428-.1523-.1021-.244,.15241-.1311,.24941-.088Z" style="fill:#263238;"></path><path d="M401.82659,186.3964c-.0338,.0354-2.23259-1.9173-4.2749-3.207-1.2556-.7929-2.9853-1.5414-4.2153-2.0297-1.334-.5296-2.383-.8753-2.3935-.8788-.0465-.0152-.07189-.0653-.0565-.1118,.0152-.0465,.0653-.0718,.1118-.0565,.042,.0138,4.2249,1.3968,6.6481,2.927,2.0555,1.298,4.1934,3.3429,4.1803,3.3568Z" style="fill:#263238;"></path></g><path d="M386.08189,173.8193s-.0456-1.1016,.1274-1.4971c.1729-.3954,.3056-.4878,.3056-.4878l-.0861,.2758s.2188-.3681,.54821-.6862c.32929-.318,.80149-.4576,.80149-.4576l-.3109,.3134s.9617-.596,1.3013-.6432c.3395-.0473,1.0789,.0187,1.0789,.0187l-.2749,.148s.5046-.0892,.84011,.0013c.33539,.0905,1.22339,.5875,1.22339,.5875l-.2201,.0559s.25371,.3066,.4383,.5721c.1847,.2655,.397,.5631,.397,.5631l-.2297-.0588s.2816,.4167,.3239,.6598c.0423,.2432,.07121,.5873,.0715,.6654,.0003,.0781-.2671-.2056-.2671-.2056,0,0-.0128,.2572-.1219,.5193-.1092,.2621-.3007,.5842-.3968,.6673-.0961,.0829-.16449,.198-.3019,.2719-.1375,.074-.5634,.319-.5634,.319l.3855-.0199s-.7838,.2969-.9215,.2928c-.1378-.004-.0275,.046-.3719-.0031-.3445-.0492-.4869-.0716-.4869-.0716l.2347,.1552s-.3445-.0491-.6293-.0939c-.28479-.0448-.3262-.0539-.4502-.0809-.124-.0271-.2205-.0221-.5562-.1906-.3358-.1686-.6072-.3144-.6072-.3144,0,0-.5929-.1813-.8006-.4606-.2077-.2792-.3598-.4163-.4807-.8152Z" style="fill:#263238;"></path><path d="M386.12569,173.0117s-.0135,.0095-.0375,.0351c-.0018,.0338-.0035,.0674-.0048,.1006l.0423-.1357Z" style="fill:#756341; stroke:#7a593b; stroke-miterlimit:10; stroke-width:.25px;"></path><path d="M386.20869,175.0004c.0082,.6932-.3732,1.2598-.8519,1.2655-.4787,.0058-.8735-.5516-.88179-1.2448-.00821-.6932,.37309-1.2598,.85179-1.2655,.4788-.0057,.8736,.5515,.8819,1.2448Z" style="fill:#fff; stroke:#263238; stroke-miterlimit:10; stroke-width:.25px;"></path><path d="M385.63979,174.457s.2075-.2881,.2093-.5201-.1215-.5736-.1215-.5736l-.06259,.2757s-.11441-.2865-.28621-.4394c-.17179-.153-.7003-.3101-.7003-.3101l.265,.2396s-.201-.1934-.5488-.1425-.8503,.5056-.8503,.5056l.5304-.075s-.2833,.2044-.3671,.2801c-.08369,.0759-.1608,.3314-.2188,.3578-.0578,.0264,.8184-.5287,1.4052-.2907,.587,.238,.7457,.6926,.7457,.6926Z" style="fill:#263238;"></path><path d="M388.28149,174.2916c-.3506-.5754-1.0324-.5427-1.4286-.442-.3961,.1007-.93989,.8267-1.1496,1.7617,0,0-.118,.5412-.2789,.8632-.161,.322-4.7775,6.9279-4.7775,6.9279l-.42089,.6356,.70689-.8478,4.8918-5.744-.2789,.1092s.61021-.5923,1.0025-.9371l.1803,.0103-.0244-.0961,.2493-.025-.0367-.1439,.31521-.0673-.08441-.0809,.2041-.0518-.00969-.1382,.189-.0608-.01231-.099,.1379-.0607-.0871-.1405c.02951-.0488,.0557-.0989,.077-.1508,.1217-.2974,.1329-.4595,.1318-.5182,.0052,.0871,.0192,.3781-.0125,.6456l-.0467,.0075,.0216,.149c-.0069,.0328-.01469,.0645-.02369,.0943l-.00271,.0079-.0992,.0436-.0086,.1171-.108,.0275-.0086,.1172-.108,.0274-.0024,.1412-.108,.0275-.0086,.1171-.1381,.0096,.01521,.06-.081,.0334,.00769,.1109-.0761,.0726c-.2154,.2081-.4154,.5273-.4154,.5273,0,0,.3857-.4431,.7035-.6006,.3178-.1573,.63531-.4169,.9428-.8657,.3077-.4488,.4107-.9988,.06-1.5742Z" style="fill:#263238;"></path><path d="M387.44429,175.1232c-.1142,.7541-.6289,1.3014-1.1497,1.2226-.5207-.0789-.8503-.7541-.7361-1.5082,.1142-.754,.6289-1.3014,1.1497-1.2226,.52081,.0789,.8503,.7541,.7361,1.5082Z" style="fill:#fff; stroke:#263238; stroke-miterlimit:10; stroke-width:.25px;"></path><path d="M385.59539,174.6978s-.2029-1.1908-.0949-1.3667c.108-.1761,.1523-.2338,.1523-.2338l.0049,.1763s.1884-.33,.3127-.4287c.1243-.0989,.5931-.2462,.5931-.2462l-.119,.1622s.2401-.1232,.4384-.1005c.1982,.0226,.8395,.234,.8395,.234l-.24539,.0599s.03009,.0662,.15659,.1685c.1263,.1023,.4666,.5304,.4666,.5304,0,0-.2114-.2376-.4511-.2273s-.67809,.1108-.67809,.1108l.15119,.1052s-.518,.0287-.7305,.1299c-.2124,.1013-.3529,.1229-.4306,.2521-.0775,.1293-.3657,.6739-.3657,.6739Z" style="fill:#263238;"></path></g><path d="M388.95609,165.4282s.67,1.2074,1.0753,2.012" style="fill:none; stroke:#263238; stroke-miterlimit:10; stroke-width:.25px;"></path><path d="M385.758,165.3882s.74239,1.8189,1.54549,3.1035" style="fill:none; stroke:#263238; stroke-miterlimit:10; stroke-width:.25px;"></path><path d="M393.81809,167.9996s2.1032-1.8766,3.70091-2.3913" style="fill:none; stroke:#263238; stroke-miterlimit:10; stroke-width:.25px;"></path><path d="M396.48789,169.9934s2.6268-1.6441,3.733-2.9067" style="fill:none; stroke:#263238; stroke-miterlimit:10; stroke-width:.25px;"></path></g><path d="M262.42809,328.1353s18.5953-32.3205,71.2822-29.6641c52.6869,2.6565,89.15,15.1316,111.7301-10.105,22.58-25.2366,24.1932-100.5816-42.2189-112.9786" style="fill:none; stroke:#263238; stroke-dasharray:0 2; stroke-miterlimit:10; stroke-width:.5px;"></path></g><g><g><g><g><path d="M160.7243,347.4657c.0357,.0257,1.6576-2.0705,3.2515-3.5534,.9799-.9117,2.3872-1.8631,3.3952-2.5006,1.0932-.6915,1.9647-1.1727,1.9734-1.1775,.0386-.0212,.0528-.0698,.0314-.1084-.0212-.0387-.0698-.0528-.1084-.0314-.0349,.0192-3.5093,1.9416-5.4004,3.7011-1.6041,1.4923-3.1568,3.6601-3.1427,3.6702Z" style="fill:#263238;"></path><path d="M169.2908,339.9846c-.0956-.0015-.1744,.0706-.1758,.1609-.0014,.0905,.075,.1649,.1708,.1665,.0956,.0014,.1744-.0706,.1758-.161,.0014-.0904-.075-.1649-.1708-.1664Z" style="fill:#263238;"></path><path d="M168.0069,335.8993c-.0303,.0267-.0426,.0702-.0275,.1102,.0119,.0317,1.1906,3.167,1.2343,4.16,.0025,.0551,.049,.0978,.1042,.0954,.055-.0024,.0976-.0491,.0953-.1041-.0452-1.0247-1.198-4.0916-1.247-4.2216-.0195-.0516-.0771-.0777-.1287-.0582-.0116,.0043-.0218,.0106-.0306,.0183Z" style="fill:#263238;"></path><path d="M159.9931,347.2815c.0358,.0257,1.6577-2.0705,3.2515-3.5533,.98-.9117,2.3873-1.8631,3.3954-2.5007,1.0931-.6915,1.9647-1.1727,1.9734-1.1774,.0386-.0213,.0527-.0699,.0313-.1084-.0213-.0387-.0698-.0528-.1085-.0315-.0348,.0192-3.5092,1.9416-5.4003,3.701-1.6041,1.4925-3.1568,3.6602-3.1428,3.6703Z" style="fill:#263238;"></path><path d="M168.5597,339.8005c-.0957-.0015-.1744,.0705-.1758,.1609s.075,.1649,.1707,.1664,.1745-.0706,.1759-.1609c.0014-.0904-.075-.1649-.1708-.1664Z" style="fill:#263238;"></path><path d="M167.2758,335.7152c-.0304,.0267-.0426,.0702-.0275,.1102,.0119,.0316,1.1906,3.167,1.2344,4.1599,.0023,.0551,.049,.0978,.104,.0954,.055-.0023,.0978-.049,.0954-.1041-.0451-1.0247-1.1979-4.0916-1.247-4.2216-.0195-.0516-.0771-.0777-.1286-.0581-.0116,.0043-.022,.0106-.0307,.0183Z" style="fill:#263238;"></path><path d="M159.4706,346.795c.0359,.0258,1.6577-2.0704,3.2516-3.5533,.98-.9117,2.3872-1.863,3.3952-2.5006,1.0932-.6915,1.9647-1.1727,1.9735-1.1775,.0386-.0212,.0527-.0698,.0313-.1085-.0212-.0386-.0698-.0526-.1084-.0313-.0349,.0192-3.5092,1.9416-5.4004,3.701-1.6041,1.4925-3.1568,3.6602-3.1428,3.6702Z" style="fill:#263238;"></path><path d="M168.0373,339.314c-.0958-.0015-.1745,.0706-.1759,.161-.0015,.0904,.075,.1649,.1707,.1664s.1745-.0706,.1759-.161c.0015-.0904-.075-.1649-.1707-.1664Z" style="fill:#263238;"></path><path d="M166.7533,335.2288c-.0303,.0266-.0426,.0702-.0275,.1102,.0119,.0315,1.1906,3.167,1.2343,4.1599,.0025,.0551,.0491,.0978,.1041,.0953,.055-.0024,.0977-.0489,.0954-.104-.0452-1.0247-1.198-4.0916-1.247-4.2216-.0195-.0517-.077-.0777-.1286-.0582-.0117,.0044-.0219,.0107-.0307,.0184Z" style="fill:#263238;"></path><path d="M161.9459,348.3317c.0359,.0257,1.6578-2.0705,3.2516-3.5533,.98-.9118,2.3873-1.8631,3.3952-2.5008,1.0932-.6914,1.9648-1.1726,1.9734-1.1774,.0387-.0213,.0528-.0698,.0314-.1084-.0213-.0387-.0697-.0527-.1084-.0314-.0348,.0191-3.5092,1.9416-5.4004,3.701-1.6041,1.4924-3.1567,3.6601-3.1428,3.6703Z" style="fill:#263238;"></path><path d="M170.5126,340.8506c-.0958-.0015-.1745,.0706-.1759,.161-.0015,.0904,.0751,.1649,.1707,.1664,.0958,.0015,.1745-.0706,.1759-.161,.0015-.0903-.0751-.1649-.1707-.1664Z" style="fill:#263238;"></path><path d="M169.2286,336.7654c-.0303,.0266-.0426,.0702-.0275,.1102,.0118,.0316,1.1906,3.167,1.2344,4.1599,.0024,.0551,.049,.0977,.104,.0953,.055-.0023,.0978-.049,.0953-.1041-.0451-1.0246-1.1979-4.0915-1.2469-4.2216-.0195-.0515-.077-.0776-.1286-.0581-.0116,.0043-.0219,.0107-.0307,.0184Z" style="fill:#263238;"></path></g><path d="M166.581,336.6468s-.3132,.641-1.7431,1.7496c-1.4299,1.1086-3.9159,.8482-4.5717,.9894,0,0-.1972,.0992-.251,.0573-.0538-.042-.0881,.1643,.1531-.2734,.2413-.4376,.3218-1.2668,1.5657-2.9396,1.2441-1.6728,4.4133-2.6902,4.4133-2.6902,0,0,2.2365,.2987,.4337,3.1069Z" style="fill:#263238;"></path><path d="M163.2787,337.3577c-.3542-.6513-.4668-1.4041-.3398-2.2468,.2233-.157,.4558-.3033,.6891-.4387-.2497,.9335-.1964,1.74,.162,2.4019,.3074,.568,.7948,.9447,1.2229,1.1843-.0567,.0452-.1145,.0911-.175,.138-.1103,.0855-.2274,.162-.349,.232-.4369-.282-.8948-.6909-1.2102-1.2707Z" style="fill:#fff;"></path><path d="M165.8154,337.5581c-.4013-.278-.8083-.6647-1.0964-1.1943-.3308-.6084-.4504-1.3056-.3613-2.0817,.2234-.1103,.4387-.2093,.638-.2961-.1617,.8038-.0838,1.5061,.2346,2.0942,.2542,.4696,.6316,.8082,.9967,1.0471-.1062,.122-.2411,.266-.4116,.4308Z" style="fill:#fff;"></path><path d="M161.7133,338.2475c-.2369-.4356-.3648-.9169-.3864-1.4397,.1199-.1805,.2547-.3726,.4071-.5777,.0745-.1,.1559-.1976,.243-.293-.144,.7758-.0619,1.4552,.2475,2.0268,.2785,.5142,.7044,.8717,1.1002,1.1126-.2667,.0651-.5371,.1122-.8024,.1467-.302-.2526-.5899-.5728-.809-.9757Z" style="fill:#fff;"></path><g style="mix-blend-mode:multiply;"><path d="M160.7517,337.7879c.0519,.2528,.1365,.4908,.2563,.712,.1768,.3266,.4133,.5898,.6636,.8003-.2939,.0169-.5641,.025-.7949,.0342-.1395-.164-.2688-.3465-.38-.5509-.0339-.0624-.0652-.1259-.0948-.1901,.0818-.2183,.1873-.4829,.3498-.8055Z" style="fill:#aea892;"></path></g><path d="M166.0577,333.7598s1.1076-4.6756,2.1896-7.1684c1.0821-2.4929,1.1261-2.6256,1.2012-2.5775,.0751,.0482,.7645,1.7235,.0447,4.5342-.7197,2.8108-2.7514,6.079-2.7514,6.079,0,0-.4222,.2659-.6841-.8673Z" style="fill:#fff; stroke:#263238; stroke-miterlimit:10; stroke-width:.25px;"></path><path d="M165.8803,333.9535s-4.464-1.6069-6.7421-2.9416c-2.2781-1.3348-2.4023-1.3927-2.3384-1.4603,.064-.0676,1.889-.5485,4.5613,.4699,2.6724,1.0185,5.532,3.3648,5.532,3.3648,0,0,.1792,.4408-1.0128,.5672Z" style="fill:#fff; stroke:#263238; stroke-miterlimit:10; stroke-width:.25px;"></path><g><path d="M166.2566,337.6946c.02,.0014,.0406-.0015,.0603-.0096,.8585-.3525,1.7919-1.1524,1.8312-1.1863,.0556-.0479,.0618-.1318,.0139-.1874-.0479-.0556-.1318-.0618-.1874-.0139-.0094,.008-.9405,.8058-1.7587,1.1417-.0678,.0279-.1002,.1055-.0725,.1734,.0199,.0482,.0647,.0785,.1132,.0821Z" style="fill:#263238;"></path><path d="M165.2453,337.0811c.0193,.0053,.0401,.0062,.061,.0021,.9099-.1826,1.9784-.7903,2.0234-.8161,.0637-.0365,.0858-.1176,.0494-.1813-.0365-.0638-.1176-.0858-.1813-.0494-.0107,.0062-1.0767,.6122-1.9439,.7862-.0719,.0145-.1185,.0845-.1041,.1565,.0103,.0509,.0485,.0892,.0955,.102Z" style="fill:#263238;"></path><path d="M165.1179,336.8715c-.0311,.1146,.0313,.2312,.1394,.2606,.1082,.0294,.2211-.0395,.2522-.1541,.0311-.1144-.0313-.2311-.1394-.2606-.1081-.0294-.221,.0396-.2522,.1541Z" style="fill:#263238;"></path><path d="M165.1671,336.7897c-.0366,.0258-.0552,.0725-.0433,.1184,.0095,.0362,.9432,3.6335,.8751,4.7342-.0037,.0611,.0427,.1137,.1038,.1174,.061,.0038,.1135-.0426,.1173-.1037,.0701-1.1359-.8429-4.6546-.8819-4.8038-.0154-.0591-.0759-.0947-.1351-.0792-.0133,.0035-.0254,.0092-.0359,.0167Z" style="fill:#263238;"></path><path d="M166.0727,341.4199c-.0977,.0415-.1453,.1499-.1061,.2423,.0391,.0924,.1501,.1337,.2479,.0922s.1453-.15,.1062-.2424c-.0392-.0922-.1502-.1335-.248-.0921Z" style="fill:#263238;"></path><path d="M155.2421,347.5698c.0331,.036,2.2642-1.8798,4.3277-3.1352,1.2687-.7719,3.0108-1.4913,4.2486-1.959,1.3426-.5072,2.3974-.8355,2.4079-.8387,.0468-.0145,.0729-.0641,.0584-.1109-.0146-.0467-.0641-.0728-.1109-.0583-.0422,.0131-4.2477,1.326-6.6961,2.8156-2.0768,1.2635-4.2486,3.2725-4.2356,3.2865Z" style="fill:#263238;"></path><path d="M164.4579,336.5312c.0185,.0076,.039,.0111,.0603,.0095,.9254-.0694,2.0606-.541,2.1085-.5611,.0676-.0283,.0996-.1061,.0712-.1739-.0283-.0676-.1063-.0995-.1739-.0712-.0114,.0048-1.1437,.4751-2.0257,.5411-.0732,.0056-.128,.0693-.1226,.1425,.0039,.052,.0371,.0946,.0822,.1131Z" style="fill:#263238;"></path><path d="M164.3573,336.3075c-.045,.1098,.0026,.2332,.1063,.2757s.2242-.012,.2692-.1218c.0451-.1098-.0026-.2333-.1063-.2758s-.2243,.0121-.2692,.1219Z" style="fill:#263238;"></path><path d="M164.416,336.2324c-.0393,.0211-.0636,.0651-.0573,.1121,.0049,.0372,.4891,3.722,.2863,4.806-.0112,.0601,.0284,.1179,.0885,.1292s.118-.0283,.1292-.0886c.2093-1.1185-.2642-4.7227-.2844-4.8756-.0081-.0607-.0638-.1033-.1244-.0953-.0136,.0018-.0263,.0061-.0379,.0122Z" style="fill:#263238;"></path><path d="M164.7456,340.9388c-.1022,.0291-.1627,.1309-.1352,.2274,.0275,.0964,.1327,.151,.2347,.122,.1022-.0292,.1627-.131,.1352-.2274-.0275-.0966-.1326-.1512-.2347-.122Z" style="fill:#263238;"></path><path d="M153.2409,345.7103c.0285,.0398,2.4782-1.5871,4.6804-2.5793,1.354-.61,3.1712-1.1099,4.4574-1.4218,1.3946-.3382,2.4817-.5343,2.4926-.5362,.0482-.0086,.0803-.0547,.0715-.1028-.0086-.0482-.0547-.0803-.1029-.0716-.0434,.0078-4.3784,.7937-6.9913,1.9709-2.2164,.9985-4.6188,2.7252-4.6077,2.7408Z" style="fill:#263238;"></path><path d="M166.0917,337.5131c-.0087,.1183,.0747,.2209,.1865,.2292,.1117,.0083,.2094-.0808,.2183-.1992,.0088-.1184-.0748-.2211-.1866-.2293-.1117-.0083-.2094,.0809-.2182,.1993Z" style="fill:#263238;"></path><path d="M166.1244,337.4234c-.031,.0323-.0404,.0816-.0199,.1245,.0162,.0337,1.6174,3.3876,1.7602,4.4811,.0079,.0606,.0635,.1034,.1242,.0954,.0605-.0078,.1033-.0634,.0954-.1241-.1474-1.1284-1.7135-4.409-1.78-4.5481-.0265-.0552-.0926-.0785-.1478-.0521-.0124,.006-.0231,.0139-.0321,.0233Z" style="fill:#263238;"></path><path d="M167.8948,341.7966c-.0881,.0593-.1142,.1749-.0582,.258,.0561,.0832,.1729,.1026,.261,.0433,.0882-.0593,.1142-.1748,.0582-.258s-.1729-.1026-.261-.0433Z" style="fill:#263238;"></path><path d="M158.4326,349.8955c.0395,.029,1.8651-2.2763,3.652-3.9016,1.0986-.9992,2.6717-2.0371,3.798-2.7319,1.2216-.7535,2.1945-1.2764,2.2042-1.2817,.0432-.0231,.0595-.0768,.0362-.1199-.0231-.0431-.0768-.0593-.12-.0362-.0389,.0209-3.9175,2.1103-6.0376,4.0386-1.7984,1.6357-3.5481,4.0213-3.5328,4.0327Z" style="fill:#263238;"></path></g><path d="M171.7499,334.7717s-.1467-1.0926-.3858-1.452c-.239-.3594-.3858-.4273-.3858-.4273l.1327,.2566s-.2795-.3244-.6592-.5803c-.3795-.256-.8689-.3112-.8689-.3112l.3607,.2545s-1.0506-.4197-1.3933-.4071c-.3425,.0125-1.0592,.206-1.0592,.206l.2965,.098s-.5125-.0001-.8271,.1473c-.3146,.1476-1.1026,.7914-1.1026,.7914l.2265,.0167s-.1965,.3461-.3322,.6397c-.1356,.2936-.293,.6235-.293,.6235l.216-.0978s-.2048,.4593-.2042,.7061c.0007,.2469,.032,.5907,.0454,.6676,.0132,.077,.2272-.2488,.2272-.2488,0,0,.0573,.251,.2104,.4901,.1531,.2392,.3977,.523,.5068,.5881,.109,.065,.1964,.1664,.3446,.2153,.1482,.049,.6103,.2161,.6103,.2161l-.3831,.0475s.8235,.156,.9584,.1281c.1349-.028,.035,.0405,.3657-.0678,.3307-.1083,.467-.1551,.467-.1551l-.2041,.1936s.3307-.1083,.6033-.202c.2727-.0936,.3119-.1097,.4293-.1579s.2133-.0601,.5146-.2844c.3013-.2244,.5432-.4152,.5432-.4152,0,0,.5524-.2817,.7084-.5928,.1559-.3111,.2818-.4726,.3315-.8865Z" style="fill:#263238;"></path><path d="M171.5663,333.9841s.015,.007,.043,.0281c.0077,.0329,.0152,.0657,.0223,.0982l-.0653-.1263Z" style="fill:#756341; stroke:#7a593b; stroke-miterlimit:10; stroke-width:.25px;"></path><path d="M171.8305,335.9569c.1124,.684,.5866,1.1757,1.059,1.0981s.7642-.6951,.6518-1.3793c-.1124-.684-.5865-1.1756-1.0589-1.098-.4724,.0776-.7643,.6951-.6519,1.3792Z" style="fill:#fff; stroke:#263238; stroke-miterlimit:10; stroke-width:.25px;"></path><path d="M172.2962,335.3228s-.2544-.2475-.2966-.4757c-.0421-.2282,.0199-.5861,.0199-.5861l.1096,.2607s.0628-.3021,.2054-.4825c.1426-.1805,.6357-.4271,.6357-.4271l-.2193,.282s.1643-.2254,.5156-.2358c.3514-.0104,.9254,.35,.9254,.35l-.5354,.0184s.3145,.152,.4102,.212c.0956,.0601,.216,.2984,.2777,.3143,.0615,.0159-.8979-.3783-1.4344-.0419-.5366,.3365-.6138,.8117-.6138,.8117Z" style="fill:#263238;"></path><path d="M169.666,335.6194c.2452-.6276,.9223-.714,1.3299-.6837s1.0694,.6506,1.4385,1.5349c0,0,.2103,.5124,.4248,.8015s5.9096,5.9914,5.9096,5.9914l.5251,.5527-.8437-.7119-5.8162-4.8056,.2937,.059s-.704-.4771-1.1502-.7485l-.1758,.0415,.0073-.0988-.2498,.0187,.011-.1481-.322-.0115,.069-.0943-.21-.0155-.0145-.1378-.1967-.027-.0051-.0997-.1464-.0357,.0614-.1536c-.0376-.0428-.0721-.0877-.102-.135-.1716-.2717-.2109-.4294-.2199-.4874,.0099,.0866,.0468,.3757,.1245,.6336l.0473-.0008,.0047,.1505c.0125,.0311,.0257,.061,.0396,.0888l.0042,.0073,.1052,.0256,.0288,.1139,.1112,.0083,.0288,.1139,.1112,.0082,.0269,.1386,.1111,.0083,.0289,.1139,.1376-.0146-.0046,.0617,.0856,.0188,.0117,.1105,.0876,.0583c.2483,.1675,.5008,.447,.5008,.447,0,0-.4569-.3692-.7973-.469-.3403-.0997-.698-.3001-1.079-.6886-.381-.3884-.5781-.9122-.3328-1.5398Z" style="fill:#263238;"></path><path d="M170.635,336.2927c.2436,.7228,.8457,1.1722,1.3448,1.004s.7062-.8905,.4627-1.6132c-.2437-.7227-.8457-1.1722-1.3448-1.004-.4992,.1683-.7063,.8905-.4627,1.6132Z" style="fill:#fff; stroke:#263238; stroke-miterlimit:10; stroke-width:.25px;"></path><path d="M172.3818,335.5523s-.0073-1.208-.1443-1.3625-.1906-.2037-.1906-.2037l.0258,.1745s-.2429-.2922-.3824-.3678c-.1396-.0758-.6269-.1392-.6269-.1392l.1453,.139s-.2578-.0796-.4491-.0228-.7861,.3765-.7861,.3765l.2521,.0163s-.0181,.0704-.1248,.1931c-.1067,.1228-.3673,.6035-.3673,.6035,0,0,.1668-.2707,.4047-.3023,.2378-.0315,.687-.0088,.687-.0088l-.1306,.1299s.5151-.0618,.7419,.0009c.2268,.0628,.369,.0596,.4679,.1734,.0988,.1138,.4774,.6,.4774,.6Z" style="fill:#263238;"></path></g><path d="M167.4601,327.0085s-.4498,1.3055-.709,2.1683" style="fill:none; stroke:#263238; stroke-miterlimit:10; stroke-width:.25px;"></path><path d="M170.6025,326.4129s-.4147,1.9202-.9822,3.3249" style="fill:none; stroke:#263238; stroke-miterlimit:10; stroke-width:.25px;"></path><path d="M163.1194,330.3863s-2.3975-1.4823-4.0604-1.7112" style="fill:none; stroke:#263238; stroke-miterlimit:10; stroke-width:.25px;"></path><path d="M160.8371,332.814s-2.8727-1.1622-4.1816-2.2131" style="fill:none; stroke:#263238; stroke-miterlimit:10; stroke-width:.25px;"></path></g><path d="M150.193,340.5223s-19.8174,6.9131-28.5739,18.8957c-8.7565,11.9826-11.0609,49.774,46.087,39.6348,57.1479-10.1391,141.4871,1.3826,183.4262,47.9305" style="fill:none; stroke:#263238; stroke-dasharray:0 2; stroke-miterlimit:10; stroke-width:.5px;"></path></g></g><g id="freepik--Table--inject-27"><line x1="491.18819" y1="452.5768" x2="10.9904" y2="452.5768" style="fill:none; stroke:#263238; stroke-miterlimit:10;"></line></g></svg>
